<svg width="49" height="48" viewBox="0 0 49 48" fill="none" xmlns="http://www.w3.org/2000/svg">
<path opacity="0.2" d="M28.7988 13.9624C28.9473 13.8683 29.135 13.8588 29.292 13.9379C29.676 14.1317 30.0722 14.4188 30.4434 14.6919C30.8283 14.975 31.1969 15.2514 31.5684 15.4721C31.9404 15.6931 32.2744 15.8324 32.5762 15.8686C32.8586 15.9025 33.1308 15.8487 33.4141 15.6411L33.5234 15.5737C33.7805 15.4447 34.0494 15.4988 34.2334 15.5786C34.4415 15.6689 34.6328 15.825 34.7959 15.9887C35.1284 16.3226 35.4567 16.8062 35.7031 17.309C35.9466 17.806 36.1393 18.3817 36.1426 18.8989C36.1442 19.1614 36.097 19.4421 35.9502 19.6909C35.7965 19.9511 35.5559 20.1381 35.2471 20.2319C35.2448 20.2327 35.2307 20.238 35.2031 20.2514C35.1728 20.2662 35.1333 20.287 35.0859 20.3149C34.9908 20.3709 34.8738 20.4481 34.7412 20.5415C34.4762 20.7282 34.1656 20.9703 33.8711 21.2211C33.575 21.4734 33.3047 21.7263 33.1162 21.9331C33.0465 22.0096 32.9942 22.0741 32.957 22.1245C32.9835 22.1528 33.0246 22.1899 33.0889 22.2309C33.2549 22.337 33.5014 22.4351 33.8027 22.5229C34.0984 22.609 34.4152 22.6765 34.709 22.7368C34.9853 22.7935 35.2752 22.8498 35.4639 22.9077C35.7497 22.9956 35.9328 23.1824 36.0527 23.3559C36.1605 23.5119 36.2451 23.7025 36.2949 23.8042C36.3587 23.9343 36.3934 23.9833 36.416 24.0044C36.4217 24.0096 36.4209 24.0077 36.417 24.0063C36.417 24.0063 36.4235 24.0074 36.4443 24.0073C36.4539 24.0043 36.4864 23.9949 36.5449 23.9653C36.63 23.9222 36.7392 23.8542 36.8652 23.7622C37.1166 23.5784 37.4059 23.3216 37.6729 23.0395C37.9414 22.7557 38.172 22.463 38.3184 22.2124C38.3915 22.0871 38.4343 21.9864 38.4551 21.9135C38.4651 21.8783 38.4672 21.8571 38.4678 21.8481C38.4503 21.7945 38.4249 21.7295 38.3867 21.6303C38.349 21.5324 38.3029 21.4088 38.2676 21.2797C38.2047 21.05 38.1289 20.6369 38.3906 20.2836L38.4404 20.2251C38.5622 20.101 38.7121 20.0644 38.7666 20.0522C38.8561 20.0322 38.9495 20.0266 39.0312 20.0258C39.1986 20.0244 39.4007 20.0444 39.6113 20.0776C40.0361 20.1447 40.5625 20.2757 41.0498 20.4585C41.5208 20.6352 42.0255 20.8857 42.3447 21.2231C42.5097 21.3975 42.6598 21.6318 42.6865 21.9223C42.7108 22.1877 42.6267 22.4322 42.4766 22.643L42.4082 22.7309L41.9121 23.3247L41.9111 23.3237C41.7779 23.4832 41.7657 23.5684 41.7646 23.5864C41.7643 23.5889 41.7599 23.6071 41.8037 23.6547C41.9298 23.7915 42.2418 23.943 42.7227 24.0747C43.1752 24.1986 43.6792 24.2807 44.0889 24.3403C44.2856 24.3689 44.4739 24.3943 44.6055 24.4155C44.6706 24.426 44.7395 24.4375 44.7969 24.4516C44.8236 24.4582 44.8671 24.47 44.9121 24.4887C44.9342 24.4979 44.9732 24.5162 45.0156 24.5454C45.05 24.5691 45.1409 24.6366 45.1963 24.7641C45.1998 24.7723 45.2039 24.7812 45.207 24.7895C45.2873 25.0065 45.2299 25.2041 45.1611 25.3325C45.0962 25.4535 45.0034 25.5499 44.9238 25.6215C44.7621 25.7669 44.5391 25.9109 44.3086 26.0454C43.8572 26.3086 43.1912 26.6409 42.6348 26.9477C42.0403 27.2755 41.5239 27.5972 41.2148 27.8979C41.0601 28.0486 40.9978 28.1565 40.9795 28.2163C40.9706 28.2454 40.968 28.2596 40.998 28.3022C41.075 28.4113 41.0912 28.5258 41.0947 28.5483C41.1019 28.5942 41.1043 28.6395 41.1055 28.6762C41.1078 28.7514 41.105 28.8411 41.0996 28.935C41.0886 29.1257 41.0645 29.3782 41.0322 29.6655C40.9674 30.2425 40.8658 30.9893 40.7559 31.728C40.6459 32.4668 40.5268 33.2037 40.4258 33.7631C40.3755 34.0417 40.3285 34.2819 40.2891 34.4575C40.2697 34.5438 40.2497 34.6241 40.2305 34.6879C40.2213 34.7184 40.2092 34.7584 40.1924 34.7973C40.1842 34.8163 40.1689 34.8473 40.1475 34.8813C40.1338 34.9029 40.0803 34.9889 39.9746 35.0522C38.3438 36.028 36.6762 36.6543 34.9365 37.2563C34.7167 37.3323 34.4922 37.3655 34.2725 37.3295C34.046 37.2924 33.86 37.1874 33.7148 37.0473C33.451 36.7923 33.3259 36.4214 33.2461 36.1499C33.1494 35.821 33.1052 35.593 33.0186 35.3657C32.9757 35.2533 32.9393 35.1942 32.916 35.1635L32.8896 35.1333C32.8827 35.13 32.8999 35.1206 32.873 35.1401C32.803 35.1911 32.7375 35.2753 32.5967 35.4458C32.4922 35.5722 32.2995 35.8085 32.0254 35.9184C31.8694 35.9809 31.6932 36.0019 31.5078 35.9614C31.3305 35.9225 31.1724 35.8338 31.0322 35.7221C30.8953 35.6129 30.7695 35.5074 30.6572 35.4135C30.5432 35.3182 30.4435 35.2349 30.3477 35.1606C30.235 35.0731 30.1648 34.9416 30.1553 34.7993L30.124 34.3295C30.1778 34.3384 30.23 34.3504 30.2803 34.3637L30.2559 33.9946C29.5347 33.7223 29.2584 32.8426 29.7002 32.2065L31.4541 29.687L31.459 29.6753C31.4593 29.6725 31.4597 29.6675 31.458 29.6626C31.4559 29.6573 31.4522 29.6527 31.4502 29.6508C31.4502 29.6508 31.4437 29.6474 31.4375 29.646L31.29 29.6128C31.2724 29.5748 31.2391 29.5441 31.1934 29.5336L30.877 29.4624C30.8442 29.455 30.8131 29.4433 30.7822 29.4331C30.2623 29.1058 30.1052 28.378 30.4941 27.8667L30.292 27.687C29.9245 27.3601 29.7433 26.8705 29.8096 26.3833L30.4795 21.4926C30.4955 21.371 30.4454 21.2466 30.3477 21.1704L30.1953 21.0551L30.1943 21.0532C29.7878 20.7378 29.562 20.2438 29.585 19.7319L29.7617 15.769C29.7635 15.7181 29.7312 15.6711 29.6816 15.6557L29.6797 15.6547C29.6283 15.6393 29.5792 15.6198 29.5312 15.5991C29.5059 15.5758 29.4771 15.5558 29.4424 15.5454C29.4224 15.5394 29.4032 15.5317 29.3838 15.5249C28.979 15.2866 28.7327 14.8548 28.7207 14.3989C28.7188 14.3221 28.7307 14.2454 28.7559 14.1752L28.6172 14.1655C28.6572 14.0837 28.7194 14.0128 28.7988 13.9624Z" fill="#036FE2"/>
<path opacity="0.3" d="M16.5026 11.8956C17.1768 11.275 18.9225 11.7696 19.0453 12.0257L19.921 13.8662C20.1344 14.3142 20.4789 13.6366 20.7702 13.8662L22.8624 15.5224C24.308 16.6665 24.3927 13.885 25.0932 13.9312L28.7561 14.1757C28.7309 14.2459 28.7193 14.3218 28.7212 14.3986C28.7358 14.9571 29.1008 15.4807 29.68 15.6549L29.6812 15.6561C29.731 15.6714 29.7637 15.7182 29.7619 15.7693L29.5848 19.7321C29.5619 20.2441 29.7877 20.7381 30.1943 21.0535L30.1955 21.0547L30.3473 21.1703C30.4453 21.2466 30.496 21.3713 30.4797 21.4931L29.81 26.3834C29.7438 26.8706 29.9243 27.3598 30.2918 27.6867L30.4942 27.8662C30.0295 28.4766 30.3419 29.3989 31.123 29.5754L31.4373 29.6464C31.4448 29.6482 31.4506 29.6513 31.4506 29.6513C31.4526 29.6531 31.4557 29.6569 31.4578 29.6621C31.4598 29.6673 31.4593 29.6725 31.459 29.6754L31.4542 29.6874L29.7004 32.206C29.2582 32.8422 29.5344 33.7224 30.2557 33.9947L30.2798 34.3633C30.0764 34.3095 29.8469 34.2905 29.5679 34.3211C29.3068 34.3535 29.422 38.2823 27.5805 37.0987L26.6663 36.5097C26.4356 36.3626 24.5106 36.7532 22.6673 37.0771C22.6779 36.9139 22.6641 36.7482 22.6239 36.588L22.5721 36.4182L21.2207 32.8083C21.1708 32.6743 21.2065 32.5226 21.311 32.4277L21.3122 32.4289L21.5784 32.1904C22.134 31.6896 22.2577 30.8739 21.8952 30.2355L21.8157 30.1102L19.3079 26.5183C18.908 25.9464 18.18 25.7047 17.518 25.9221L15.3728 26.6279C15.2377 26.6721 15.0879 26.6295 14.997 26.5219L14.8525 26.3485L14.8512 26.3473C14.7519 26.2281 14.7938 26.0464 14.9356 25.9823L15.0741 25.9185L15.0753 25.9197C15.6949 25.6413 15.9941 24.9404 15.7859 24.3093L15.7378 24.184C15.7221 24.1477 15.7355 24.1052 15.7679 24.084L17.0447 23.2613L17.0459 23.2601C17.7653 22.7956 17.9837 21.8428 17.5397 21.1113L16.6207 19.5984C16.5663 19.5086 16.556 19.3973 16.593 19.2973L18.1034 15.2357C18.2634 14.8045 18.2258 14.3279 18.0095 13.93L17.9059 13.7638L16.6869 12.0654C16.6368 11.9957 16.5739 11.9382 16.5026 11.8956Z" fill="#024D9E"/>
<path opacity="0.2" d="M16.0811 11.8169C16.3133 11.7777 16.5485 11.8748 16.6857 12.0662L17.9047 13.7646L18.0083 13.9308C18.2246 14.3287 18.2623 14.8053 18.1022 15.2365L16.5918 19.2981C16.5548 19.3982 16.5649 19.5093 16.6195 19.5992L17.5385 21.1121C17.9826 21.8435 17.7642 22.7963 17.0447 23.2609L17.0435 23.2621L15.7667 24.0848C15.7341 24.106 15.7207 24.1483 15.7366 24.1848L15.7848 24.31C15.9929 24.9412 15.6938 25.6421 15.0741 25.9205L15.0729 25.9192L14.9344 25.9831C14.7923 26.0471 14.7503 26.2288 14.8501 26.3481L14.8513 26.3493L14.9958 26.5227C15.0868 26.6303 15.2365 26.6731 15.3716 26.6287L17.5169 25.9229C18.179 25.7054 18.9069 25.9469 19.3068 26.5191L21.8145 30.1109L21.894 30.2362C22.2565 30.8746 22.1328 31.6904 21.5773 32.1911L21.3111 32.4296L21.3099 32.4284C21.2052 32.5235 21.1694 32.6749 21.2195 32.809L22.571 36.4189L22.6228 36.5888C22.6657 36.7601 22.6801 36.9374 22.6649 37.1115C22.6402 37.3913 22.4288 37.6192 22.1518 37.6656C21.4338 37.7847 20.7377 37.8866 20.1945 37.9234C19.9265 37.9415 19.6666 37.9459 19.4489 37.921C19.3407 37.9085 19.2154 37.8861 19.096 37.8403C18.9839 37.7972 18.8074 37.7071 18.6864 37.5175L18.6852 37.5163C18.4176 37.0942 18.4767 36.6593 18.6033 36.3322C18.7201 36.031 18.9244 35.7409 19.0731 35.5276C19.2433 35.2833 19.3639 35.1085 19.4308 34.9519C19.4609 34.8811 19.469 34.8359 19.4706 34.8133C19.4715 34.7979 19.4696 34.7925 19.467 34.7868C19.2547 34.3371 19.2817 33.8401 19.2839 33.5872C19.284 33.5735 19.2827 33.5598 19.2827 33.5474C19.1117 33.6082 18.9094 33.6925 18.6599 33.7931C18.3775 33.9071 18.0394 34.0365 17.7156 34.1063C17.4126 34.1715 16.9811 34.2169 16.599 34.0027C15.998 33.6654 13.935 32.8449 11.9195 32.255C10.9167 31.9615 9.96212 31.7368 9.23586 31.6551C8.8695 31.614 8.59693 31.6133 8.41921 31.6419C8.36477 31.6507 8.33023 31.6637 8.3096 31.6708C8.20327 31.8648 8.02823 32.1527 7.77118 32.3477C7.6128 32.4676 7.39572 32.5735 7.13038 32.5802C6.86238 32.5867 6.61851 32.4907 6.41129 32.3405C6.12934 32.136 5.38197 31.5293 4.77798 30.8903C4.48088 30.5759 4.18063 30.2152 4.00107 29.8664C3.91204 29.6934 3.82803 29.4747 3.81919 29.2377C3.80961 28.9747 3.89658 28.6933 4.13356 28.4812C4.25144 28.3756 4.32941 28.2257 4.37808 27.9934C4.43103 27.7401 4.43561 27.4798 4.45878 27.1358C4.47859 26.8419 4.5134 26.4277 4.70691 26.0807C4.90309 25.7294 5.22115 25.5078 5.63318 25.4218C5.63498 25.405 5.64014 25.386 5.64161 25.3652C5.66138 25.0757 5.62667 24.6807 5.59343 24.1884C5.56295 23.7368 5.5335 23.1989 5.60668 22.7478C5.67628 22.3198 5.89077 21.6949 6.57269 21.5312L6.72446 21.4794C6.80103 21.4498 6.90207 21.4067 7.01836 21.3518C7.24259 21.2456 7.48594 21.1108 7.68084 20.9675C7.7774 20.8964 7.85267 20.8291 7.90608 20.7712C7.91152 20.7652 7.91579 20.7575 7.92054 20.7519C7.79228 20.6507 7.57682 20.4774 7.44114 20.2569C7.35194 20.1116 7.28298 19.929 7.28094 19.7136C7.27911 19.5007 7.34292 19.3032 7.44114 19.1282L7.51221 19.0258C7.58723 18.9383 7.66962 18.8914 7.70975 18.8705C7.77278 18.8377 7.8314 18.8198 7.86754 18.8102C7.94088 18.7909 8.01496 18.7816 8.0699 18.7765C8.1853 18.7658 8.32634 18.7623 8.46979 18.7633C8.76263 18.7653 9.1406 18.7839 9.5129 18.8054C9.8865 18.827 10.2697 18.8532 10.5729 18.8729C10.6099 18.8753 10.6468 18.8767 10.6813 18.8789C10.6906 18.8273 10.7005 18.773 10.7126 18.7211C10.7595 18.5199 10.8445 18.2527 11.0234 18.0189C11.2186 17.764 11.5104 17.5694 11.9002 17.5274L13.7311 17.3311C14.1863 17.2821 14.4652 17.096 14.6646 16.8336C14.8827 16.546 15.0329 16.1305 15.1367 15.6002C15.2401 15.0718 15.2861 14.4968 15.3391 13.9079C15.3898 13.3449 15.4487 12.7418 15.5933 12.2505L15.6234 12.1686C15.7074 11.9849 15.8783 11.8515 16.0811 11.8169Z" fill="#036FE2"/>
<path d="M26.5314 12.8848C27.8576 12.8848 28.9327 13.9599 28.9327 15.2861C28.9327 16.353 28.2365 17.2564 27.2739 17.5692L28.7164 28.0235L35.373 17.2275C34.9161 16.7904 34.6305 16.1753 34.6305 15.493C34.6308 14.1671 35.7058 13.0929 37.0318 13.0929C38.3578 13.0929 39.4329 14.1671 39.4332 15.493C39.4332 16.8192 38.358 17.8944 37.0318 17.8944C36.8245 17.8944 36.6243 17.8646 36.4324 17.8151L29.3868 29.2449L36.6038 27.4915C36.6174 26.177 37.6874 25.1161 39.0051 25.1161C40.3312 25.1162 41.4062 26.1904 41.4065 27.5163C41.4065 28.8425 40.3313 29.9176 39.0051 29.9176C38.095 29.9176 37.3031 29.4119 36.8958 28.6655L28.5875 30.685L28.5733 30.6282L28.5035 30.6779L28.3983 30.8493L28.3226 30.8032L21.8162 35.3198C21.9127 35.5798 21.9687 35.8598 21.9687 36.1533C21.9687 37.4795 20.8936 38.5547 19.5674 38.5547C18.2412 38.5547 17.166 37.4796 17.166 36.1533C17.1663 34.8274 18.2414 33.7532 19.5674 33.7532C20.1617 33.7532 20.7052 33.9689 21.1245 34.3266L26.7017 30.4544L13.2477 26.5799C12.817 27.2235 12.0845 27.6475 11.2519 27.6475C9.92572 27.6475 8.85059 26.5724 8.85059 25.2462C8.85089 23.9202 9.92591 22.846 11.2519 22.846C12.5779 22.846 13.653 23.9203 13.6533 25.2462C13.6533 25.3094 13.6474 25.3723 13.6426 25.4342L27.6948 29.4802L26.062 17.6402C24.9606 17.4218 24.1301 16.4516 24.13 15.2861C24.13 13.9599 25.2052 12.8848 26.5314 12.8848Z" fill="#036FE2"/>
<circle cx="28.4013" cy="29.9042" r="2.40132" fill="#024D9E"/>
</svg>
