<svg width="49" height="48" viewBox="0 0 49 48" fill="none" xmlns="http://www.w3.org/2000/svg">
<g clip-path="url(#clip0_7136_2385)">
<circle cx="27.8846" cy="16.8366" r="2" fill="#024D9E"/>
<circle cx="17.6322" cy="27.7979" r="2" fill="#024D9E"/>
<path opacity="0.5" fill-rule="evenodd" clip-rule="evenodd" d="M33.1514 4.5C33.4275 4.5 33.6514 4.72386 33.6514 5V11.0342H39.6855C39.9616 11.0342 40.1854 11.2581 40.1855 11.5342C40.1855 11.8103 39.9617 12.0342 39.6855 12.0342H33.6514V21.4893H39.6855C39.9617 21.4893 40.1855 21.7131 40.1855 21.9893C40.1855 22.2654 39.9617 22.4893 39.6855 22.4893H39.251C38.1243 22.1707 36.9356 22 35.707 22C34.4784 22 33.2897 22.1707 32.1631 22.4893H23.1963V31.4551C22.8776 32.582 22.707 33.7711 22.707 35C22.707 36.2286 22.8778 37.4173 23.1963 38.5439V38.9785C23.1963 39.2547 22.9724 39.4785 22.6963 39.4785C22.4201 39.4785 22.1963 39.2547 22.1963 38.9785V32.9443H12.7412V38.9785C12.7412 39.2547 12.5174 39.4785 12.2412 39.4785C11.9651 39.4785 11.7412 39.2547 11.7412 38.9785V32.9443H5.70703C5.43097 32.9443 5.20716 32.7204 5.20703 32.4443C5.20703 32.1682 5.43089 31.9443 5.70703 31.9443H11.7412V22.4893H5.70703C5.43089 22.4893 5.20703 22.2654 5.20703 21.9893C5.20703 21.7131 5.43089 21.4893 5.70703 21.4893H11.7412V12.0342H5.70703C5.43089 12.0342 5.20703 11.8103 5.20703 11.5342C5.20716 11.2581 5.43097 11.0342 5.70703 11.0342H11.7412V5C11.7412 4.72386 11.9651 4.5 12.2412 4.5C12.5174 4.5 12.7412 4.72386 12.7412 5V11.0342H22.1963V5C22.1963 4.72386 22.4201 4.5 22.6963 4.5C22.9724 4.5 23.1963 4.72386 23.1963 5V11.0342H32.6514V5C32.6514 4.72386 32.8752 4.5 33.1514 4.5ZM12.7412 31.9443H22.1963V22.4893H12.7412V31.9443ZM12.7412 21.4893H22.1963V12.0342H12.7412V21.4893ZM23.1963 21.4893H32.6514V12.0342H23.1963V21.4893Z" fill="#036FE2"/>
<path opacity="0.2" d="M35.707 48C42.8867 48 48.707 42.1797 48.707 35C48.707 27.8203 42.8867 22 35.707 22C28.5273 22 22.707 27.8203 22.707 35C22.707 42.1797 28.5273 48 35.707 48Z" fill="#036FE2"/>
<path d="M28.707 41.65V40.25H35.007V32.4275C34.7037 32.3225 34.4412 32.1592 34.2195 31.9375C33.9979 31.7158 33.8345 31.4533 33.7295 31.15H31.507L33.607 36.05C33.607 36.6333 33.3679 37.1292 32.8895 37.5375C32.4112 37.9458 31.8337 38.15 31.157 38.15C30.4804 38.15 29.9029 37.9458 29.4245 37.5375C28.9462 37.1292 28.707 36.6333 28.707 36.05L30.807 31.15H29.407V29.75H33.7295C33.8695 29.3417 34.1204 29.0063 34.482 28.7438C34.8437 28.4813 35.252 28.35 35.707 28.35C36.162 28.35 36.5704 28.4813 36.932 28.7438C37.2937 29.0063 37.5445 29.3417 37.6845 29.75H42.007V31.15H40.607L42.707 36.05C42.707 36.6333 42.4679 37.1292 41.9895 37.5375C41.5112 37.9458 40.9337 38.15 40.257 38.15C39.5804 38.15 39.0029 37.9458 38.5245 37.5375C38.0462 37.1292 37.807 36.6333 37.807 36.05L39.907 31.15H37.6845C37.5795 31.4533 37.4162 31.7158 37.1945 31.9375C36.9729 32.1592 36.7104 32.3225 36.407 32.4275V40.25H42.707V41.65H28.707ZM38.9445 36.05H41.5695L40.257 33.005L38.9445 36.05ZM29.8445 36.05H32.4695L31.157 33.005L29.8445 36.05ZM35.707 31.15C35.9054 31.15 36.0716 31.0829 36.2058 30.9488C36.3399 30.8146 36.407 30.6483 36.407 30.45C36.407 30.2517 36.3399 30.0854 36.2058 29.9513C36.0716 29.8171 35.9054 29.75 35.707 29.75C35.5087 29.75 35.3424 29.8171 35.2083 29.9513C35.0741 30.0854 35.007 30.2517 35.007 30.45C35.007 30.6483 35.0741 30.8146 35.2083 30.9488C35.3424 31.0829 35.5087 31.15 35.707 31.15Z" fill="#024D9E"/>
</g>
<defs>
<clipPath id="clip0_7136_2385">
<rect width="48" height="48" fill="white" transform="translate(0.707031)"/>
</clipPath>
</defs>
</svg>
