<svg width="49" height="48" viewBox="0 0 49 48" fill="none" xmlns="http://www.w3.org/2000/svg">
<g clip-path="url(#clip0_7136_2375)">
<path opacity="0.5" d="M16.7692 13.3356C16.9206 13.5468 16.9574 13.8195 16.8669 14.0631L15.6423 17.356C15.5591 17.58 15.5825 17.8297 15.7064 18.034L16.4516 19.2609C16.6715 19.6229 16.5633 20.0941 16.2073 20.3236L15.1712 20.9909C14.9369 21.142 14.8478 21.4417 14.9613 21.6964C15.0883 21.981 14.9609 22.3154 14.6765 22.443L14.5628 22.4942C14.1444 22.6819 14.0218 23.2174 14.3169 23.5684L14.4353 23.7096C14.6409 23.9541 14.9747 24.0485 15.2781 23.9486L17.0173 23.3768C17.3452 23.2689 17.7053 23.3885 17.903 23.6715L19.9361 26.5834C20.1618 26.9068 20.1116 27.3478 19.8185 27.6118L19.6032 27.8049C19.3646 28.0199 19.2822 28.3592 19.3948 28.66L20.4904 31.5872C20.5315 31.6971 20.547 31.814 20.5369 31.9292C19.3754 32.1219 18.3647 32.2427 18.2312 32.033C17.8214 31.3866 19.2258 30.5772 18.8947 29.8747C18.6681 29.3944 18.9348 28.7802 18.6443 28.5585C18.3275 28.3174 16.9388 29.3406 16.3615 29.0165C15.2869 28.4136 9.49925 26.3045 8.98558 27.2728C8.82113 27.5831 8.55352 27.9914 8.15111 27.6996C7.73458 27.3975 5.82366 25.8139 6.34396 25.3488C7.15506 24.6235 6.30524 23.0545 7.46016 22.9653C8.18753 22.9083 7.139 20.0589 8.10453 19.8274C8.4456 19.7458 10.1958 18.9603 9.43145 18.3501C9.18806 18.1557 8.94045 17.9722 9.12835 17.6377C9.19882 17.5123 11.438 17.7184 11.7043 17.7095C11.8409 17.7049 11.6872 16.6649 12.3609 16.5925L13.8459 16.433C15.8727 16.2157 15.3776 13.3297 15.7813 11.9583L16.7692 13.3356Z" fill="#036FE2"/>
<path opacity="0.5" d="M26.4453 13.5459C27.5497 14.1029 28.9428 15.8216 30.21 14.8926C30.7755 14.4786 32.6075 17.5139 31.3389 17.8994C30.9088 18.0298 29.1311 19.4813 29.1641 19.8154C29.2347 20.5172 30.9985 20.6855 31.5137 20.8438C31.9809 20.9878 31.8764 21.7777 32.4512 21.7539C32.9649 21.7316 34.6457 20.0966 34.46 19.4902C34.382 19.2366 34.1445 18.8206 34.3301 18.5703C34.5067 18.3322 37.7805 19.0614 36.9512 20.0537L36.5488 20.5342C35.4218 21.8832 39.1047 22.0151 39.1514 22.123C39.1807 22.2027 39.1061 22.2987 38.9629 22.4102C37.9224 22.1419 36.8313 22 35.707 22C32.7814 22 30.0815 22.9666 27.9092 24.5977C27.9606 24.4567 27.9265 24.2922 27.8066 24.1855L27.5508 23.958C27.3773 23.8036 27.2919 23.5729 27.3232 23.3428L27.8662 19.3789C27.904 19.1023 27.7909 18.8254 27.5703 18.6543L27.4463 18.5596C27.2455 18.4039 27.1331 18.1591 27.1445 17.9053L27.2891 14.6934C27.3012 14.4221 27.1272 14.1767 26.8672 14.0986C26.6136 14.0226 26.4517 13.7933 26.4453 13.5459Z" fill="#036FE2"/>
<path opacity="0.3" d="M15.9872 11.5834C16.4903 11.0006 17.9972 11.4207 18.0995 11.6352L18.8094 13.1274C18.9824 13.4907 19.2617 12.9411 19.4979 13.1274L21.1942 14.4701C22.3659 15.3976 22.4343 13.1437 23.0018 13.1801L26.0038 13.3813C26.1688 13.3924 26.3436 13.4543 26.5262 13.5463C26.5326 13.7937 26.6954 14.0229 26.9491 14.099C27.2092 14.1771 27.3832 14.4225 27.371 14.6938L27.2264 17.9057C27.215 18.1595 27.3274 18.4043 27.5282 18.56L27.6522 18.6547C27.8727 18.8257 27.9857 19.1019 27.9481 19.3783L27.4051 23.3432C27.3738 23.5734 27.4599 23.8041 27.6337 23.9584L27.8885 24.1859C27.9876 24.2741 28.0272 24.4016 28.0096 24.5229C25.6814 26.2362 23.9452 28.7069 23.1639 31.5717C22.4177 31.6926 21.4137 31.8884 20.5028 32.0395C20.5128 31.9244 20.498 31.8076 20.4569 31.6977L19.3602 28.7699C19.2479 28.4694 19.3311 28.1304 19.5692 27.9154L19.785 27.7221C20.0781 27.458 20.1281 27.0162 19.9022 26.6928L17.869 23.7817C17.6715 23.4989 17.3119 23.3791 16.9842 23.4867L15.244 24.059C14.9407 24.1586 14.6067 24.0631 14.4012 23.8188L14.2831 23.6791C13.9885 23.3284 14.1108 22.793 14.5282 22.6049L14.6434 22.5522C14.9272 22.4244 15.0543 22.0914 14.9276 21.807C14.8141 21.5524 14.9033 21.2521 15.1376 21.101L16.1737 20.434C16.5296 20.2044 16.6377 19.7325 16.4178 19.3705L15.6727 18.144C15.5488 17.9397 15.525 17.6892 15.6083 17.4652L16.8329 14.1733C16.9233 13.9297 16.8865 13.6569 16.7352 13.4457L15.7469 12.0668C15.8048 11.8705 15.8823 11.7052 15.9872 11.5834Z" fill="#036FE2"/>
<path fill-rule="evenodd" clip-rule="evenodd" d="M15.6142 10.9714C15.9629 10.9124 16.313 11.0443 16.54 11.3103C17.1778 11.2041 18.0234 11.4757 18.0995 11.6345L18.8095 13.1267C18.9825 13.4895 19.2618 12.9406 19.498 13.1267L21.1942 14.4695C22.3661 15.3968 22.435 13.142 23.0028 13.1794L25.6679 13.3572C25.7067 13.2629 25.7744 13.1812 25.8632 13.1247C26.0117 13.0306 26.1993 13.0212 26.3564 13.1003C26.6758 13.2615 27.0029 13.499 27.3026 13.7195C27.6163 13.9502 27.9116 14.1713 28.2079 14.3474C28.5044 14.5235 28.7617 14.6288 28.9872 14.656C29.1935 14.6807 29.3903 14.6423 29.5995 14.489C29.8708 14.2906 30.1709 14.3476 30.3573 14.4284C30.5418 14.5085 30.7075 14.6442 30.8437 14.781C31.1221 15.0607 31.3935 15.462 31.5966 15.8767C31.7967 16.2853 31.9599 16.7663 31.9628 17.2058C31.9642 17.4294 31.9242 17.6763 31.7939 17.8972C31.6565 18.1296 31.4407 18.2962 31.1689 18.3786C31.162 18.3817 31.1276 18.3971 31.0595 18.4372C30.9853 18.4809 30.8921 18.5412 30.786 18.6159C30.574 18.7654 30.3246 18.9601 30.0878 19.1618C29.8495 19.3649 29.6334 19.5667 29.4843 19.7302C29.4582 19.7588 29.4355 19.7859 29.4159 19.8093C29.4241 19.815 29.4323 19.8224 29.4423 19.8288C29.5656 19.9076 29.7556 19.9841 29.997 20.0544C30.2327 20.1231 30.4864 20.1774 30.7245 20.2263C30.9452 20.2716 31.1871 20.3182 31.3456 20.3669L31.4384 20.4001C31.6444 20.4877 31.7813 20.6337 31.873 20.7663C31.9656 20.9004 32.0384 21.0654 32.0761 21.1423C32.0972 21.1854 32.1136 21.2165 32.1278 21.24C32.1344 21.2369 32.143 21.2343 32.1513 21.2302C32.2141 21.1984 32.2981 21.1464 32.3974 21.0739C32.5958 20.9289 32.8268 20.724 33.04 20.4988C33.2545 20.272 33.4359 20.0402 33.5497 19.8454C33.6066 19.7481 33.6383 19.6736 33.6523 19.6247C33.6541 19.6182 33.6543 19.6118 33.6552 19.6072C33.6424 19.5707 33.6261 19.5239 33.5995 19.4548C33.5689 19.3752 33.5289 19.2714 33.4989 19.1618C33.4467 18.9711 33.3744 18.5971 33.6142 18.2732L33.664 18.2155C33.7826 18.0949 33.9267 18.0603 33.9745 18.0495C34.0562 18.0313 34.1393 18.0267 34.2089 18.0261C34.3517 18.0248 34.5208 18.0417 34.6942 18.0691C35.0445 18.1243 35.4775 18.2321 35.8788 18.3825C36.2641 18.5271 36.6915 18.7361 36.9657 19.0261C37.1081 19.1767 37.2433 19.3862 37.2675 19.6501C37.2925 19.9262 37.1881 20.1741 37.0204 20.3747L36.6181 20.8552C36.5585 20.9266 36.5345 20.9735 36.5253 20.9968L36.5273 20.9988C36.6097 21.088 36.8385 21.2057 37.2275 21.3122C37.5884 21.411 37.9925 21.4759 38.3241 21.5241C38.4818 21.5471 38.6366 21.5684 38.7441 21.5857C38.7973 21.5942 38.8566 21.6045 38.9071 21.6169C38.9304 21.6227 38.9705 21.6342 39.0136 21.6521C39.0347 21.6609 39.0731 21.6778 39.1151 21.7068C39.1404 21.7242 39.1983 21.7664 39.2489 21.8405L39.2958 21.9245L39.3056 21.9499C39.3828 22.159 39.3274 22.3482 39.2636 22.4675C39.2597 22.4747 39.254 22.481 39.2499 22.488C38.2926 22.2175 37.2901 22.0554 36.2567 22.0124C36.0812 21.9222 35.9176 21.8132 35.7909 21.6755C35.6269 21.4973 35.5058 21.2537 35.5214 20.9587C35.5364 20.6796 35.6705 20.4292 35.8505 20.2136L36.2528 19.7322C36.2486 19.7271 36.2451 19.7199 36.2392 19.7136C36.1274 19.5954 35.8797 19.4509 35.5282 19.3191C35.1931 19.1934 34.826 19.1017 34.539 19.0564C34.5319 19.0553 34.5244 19.0545 34.5175 19.0534C34.5225 19.0668 34.5267 19.0812 34.5321 19.0954C34.5578 19.1621 34.5969 19.2597 34.623 19.3445L34.6542 19.4958C34.6704 19.6443 34.6464 19.7846 34.6142 19.8982C34.5697 20.0547 34.4953 20.2083 34.413 20.3493C34.2478 20.6322 34.0118 20.926 33.7655 21.1863C33.5179 21.4478 33.243 21.6943 32.9882 21.8806C32.8611 21.9734 32.7296 22.0579 32.6034 22.1218C32.5172 22.1654 32.4057 22.2145 32.2831 22.239L32.1571 22.2546C31.8805 22.266 31.6488 22.1726 31.4726 22.0085C31.3205 21.8669 31.2311 21.6898 31.1786 21.5827C31.1122 21.4471 31.0877 21.3882 31.0507 21.3347C31.0456 21.3274 31.0409 21.3226 31.038 21.3191C30.937 21.2897 30.7688 21.2562 30.5233 21.2058C30.284 21.1566 29.9956 21.0953 29.7177 21.0144C29.4451 20.935 29.1473 20.8269 28.9042 20.6716C28.6674 20.5203 28.3924 20.2635 28.3525 19.865C28.3395 19.734 28.3731 19.6232 28.3983 19.5583C28.4258 19.4882 28.4613 19.4242 28.495 19.3718C28.5627 19.2666 28.6522 19.1582 28.745 19.0564C28.9331 18.8501 29.1833 18.6185 29.4384 18.4011C29.695 18.1824 29.9692 17.9681 30.2099 17.7986C30.3299 17.714 30.4467 17.6367 30.5517 17.5749C30.6479 17.5183 30.7656 17.456 30.8788 17.4216C30.9221 17.4085 30.9292 17.3952 30.9325 17.3894C30.9426 17.3724 30.9634 17.3207 30.9628 17.2126C30.9614 16.9876 30.8689 16.6627 30.6991 16.3161C30.5323 15.9756 30.319 15.6712 30.1347 15.4861C30.0961 15.4473 30.0619 15.4196 30.0351 15.3982C29.6568 15.6264 29.2596 15.6961 28.8681 15.6491C28.4421 15.5979 28.0447 15.4132 27.6972 15.2068C27.6169 15.1591 27.5369 15.1082 27.4579 15.0564L27.33 17.9284C27.326 18.0203 27.3663 18.1083 27.4374 18.1638L27.5605 18.2595C27.9219 18.5397 28.1088 18.9928 28.0468 19.447L27.5038 23.4109C27.4952 23.4755 27.519 23.5412 27.5673 23.5847L27.8241 23.8113C28.0142 23.9802 28.1097 24.2123 28.1151 24.446C27.8612 24.629 27.6146 24.8217 27.3749 25.0222C27.2036 25.1659 27.0359 25.3136 26.872 25.4655C26.774 25.1878 26.763 24.88 26.8544 24.5905C26.5108 24.2207 26.3455 23.7135 26.415 23.2058L26.9403 19.3679L26.9198 19.3523L26.9159 19.3493C26.4571 18.9935 26.2016 18.4367 26.2275 17.8601L26.3593 14.9284C26.1098 14.7932 25.907 14.5981 25.7646 14.3669L23.4091 14.2087C23.4056 14.2163 23.402 14.2252 23.3983 14.2331C23.3487 14.3414 23.2829 14.4858 23.2089 14.6257C23.0874 14.8554 22.8175 15.3356 22.2997 15.5671C21.7232 15.8245 21.173 15.6597 20.748 15.3796L20.5741 15.2536L19.2607 14.2136C19.1661 14.2382 19.047 14.2588 18.911 14.2527C18.6718 14.2417 18.4396 14.1548 18.247 13.9978C18.1155 13.8905 18.024 13.7686 17.9608 13.6599L17.9062 13.5564L17.8954 13.5339C17.9276 13.754 17.92 13.9798 17.8681 14.1999L17.8046 14.4109L17.7987 14.4236L17.7704 14.5212L16.62 17.6111L17.3066 18.7409C17.5894 19.2067 17.6327 19.7522 17.4716 20.2331C17.3616 20.6473 17.1033 21.0231 16.7157 21.2732L15.995 21.7361C16.0248 21.9768 15.9974 22.2169 15.9198 22.4402C15.8945 22.5351 15.862 22.628 15.8192 22.7165L16.705 22.4265L16.8456 22.3864C17.5522 22.2165 18.2998 22.4934 18.7226 23.0984L20.7558 26.0105C21.0897 26.4889 21.1563 27.0803 20.9804 27.6013C20.8942 27.9243 20.7192 28.2264 20.455 28.4646L20.453 28.4655L20.4052 28.5075L21.2939 30.8825C21.7916 30.793 22.2733 30.7059 22.7567 30.6238C23.0229 30.5785 23.2785 30.5398 23.5028 30.5105C23.3753 30.8572 23.2621 31.2112 23.164 31.571C22.6952 31.647 22.1242 31.7508 21.539 31.8562C21.5391 31.9093 21.5377 31.9624 21.5331 32.0154C21.4935 32.4701 21.1504 32.84 20.7001 32.9148C20.1163 33.0116 19.5326 33.098 19.0663 33.1296C18.8383 33.1451 18.5918 33.1512 18.37 33.1257C18.2603 33.1131 18.114 33.088 17.9628 33.03C17.8236 32.9765 17.5672 32.8519 17.3876 32.57L17.3866 32.5681C17.0552 32.0452 17.1397 31.5125 17.2763 31.1599C17.3968 30.8492 17.6009 30.5637 17.7128 30.403C17.8129 30.2593 17.8709 30.1663 17.9091 30.1013C17.8735 29.9961 17.8508 29.8935 17.8339 29.7986C17.6265 29.8794 17.3777 29.9713 17.1278 30.0251C16.8869 30.077 16.4698 30.138 16.0507 29.9734L15.872 29.8884C15.4343 29.6428 13.8054 28.9894 12.1825 28.5144C11.3789 28.2792 10.6378 28.107 10.0917 28.0456C9.92115 28.0265 9.79187 28.0226 9.69913 28.0241C9.5947 28.1811 9.45186 28.3643 9.26163 28.5085C9.07356 28.651 8.79953 28.7899 8.45304 28.7986C8.10238 28.8072 7.8 28.6793 7.56437 28.5085C7.31518 28.3278 6.68352 27.8158 6.16886 27.2712C5.91952 27.0073 5.63738 26.6737 5.4589 26.3269C5.37076 26.1555 5.26672 25.903 5.25577 25.6072C5.24345 25.2688 5.35797 24.888 5.67765 24.6023L5.68448 24.5915C5.69232 24.5758 5.70628 24.5411 5.71964 24.4773C5.75312 24.3168 5.75434 24.1614 5.7753 23.8503C5.7908 23.6204 5.82065 23.1773 6.03898 22.7859C6.20574 22.4872 6.44658 22.273 6.73233 22.1374C6.72556 21.9786 6.71221 21.7805 6.69523 21.529C6.67104 21.1706 6.64183 20.6779 6.71183 20.2468C6.77588 19.8531 7.00654 19.0616 7.87101 18.8542C7.88444 18.8492 7.98112 18.817 8.13565 18.7439C8.19744 18.7146 8.25826 18.68 8.31827 18.6472C8.30048 18.6222 8.28275 18.5964 8.26651 18.57C8.15609 18.3903 8.0649 18.1532 8.06241 17.8708C8.06012 17.5927 8.14427 17.3474 8.25675 17.1472L8.31144 17.0603C8.44478 16.8709 8.60826 16.7767 8.67862 16.74C8.77502 16.6898 8.86156 16.6639 8.91007 16.6511C9.00888 16.625 9.10011 16.6142 9.15519 16.6091C9.27421 16.598 9.40886 16.5956 9.53019 16.5964C9.78114 16.5981 10.0973 16.6131 10.4003 16.6306C10.5839 16.6412 10.7707 16.6535 10.9433 16.6648C10.9985 16.5152 11.0778 16.3467 11.1991 16.1882C11.4332 15.8826 11.7901 15.6472 12.2538 15.5974L13.7392 15.4382L13.8905 15.4099C14.0202 15.372 14.0914 15.3077 14.1503 15.2302C14.2596 15.0861 14.362 14.8366 14.4403 14.4363C14.518 14.0393 14.5536 13.6033 14.5976 13.115C14.6378 12.6685 14.6886 12.1295 14.8222 11.6755L14.871 11.5427C15.0073 11.244 15.2845 11.0273 15.6142 10.9714ZM15.7528 12.0739C15.4052 13.4852 15.8172 16.2208 13.8456 16.4323L12.3612 16.5925C11.6877 16.6649 11.8405 17.7036 11.704 17.7087C11.4371 17.7175 9.20278 17.5129 9.12784 17.6374C8.94034 17.9716 9.1883 18.1551 9.43155 18.3493C10.1957 18.9595 8.44592 19.7451 8.1044 19.8269C7.139 20.0585 8.187 22.9073 7.45987 22.9646C6.30536 23.054 7.15423 24.623 6.34366 25.3484C5.82394 25.8136 7.73442 27.3966 8.15128 27.6989C8.5536 27.9906 8.82083 27.5825 8.98526 27.2722C9.50033 26.305 15.2864 28.4133 16.3612 29.0163C16.9384 29.3403 18.3273 28.3178 18.6444 28.5583C18.9342 28.7802 18.6686 29.3938 18.8944 29.8738C19.2255 30.5762 17.8221 31.3866 18.2314 32.0329C18.3322 32.1897 18.9252 32.1607 19.705 32.0554L20.5038 31.9333C20.5001 31.8532 20.4854 31.7732 20.4569 31.697L19.3603 28.7693C19.2917 28.5856 19.2959 28.3878 19.3642 28.2126C19.3992 28.0586 19.4809 27.9148 19.6034 27.8044L19.8183 27.6111C19.9115 27.527 19.9784 27.4245 20.0214 27.3142C20.0587 27.1504 20.0458 26.9759 19.9745 26.8181L19.9032 26.6921L17.8691 23.781C17.6716 23.4984 17.3119 23.3777 16.9843 23.4851L15.2441 24.0583L15.1288 24.0866C14.8592 24.1316 14.582 24.0317 14.4023 23.8181L14.2831 23.6775C14.1103 23.4717 14.0812 23.2027 14.1708 22.9773C14.2152 22.7733 14.351 22.5889 14.5624 22.4939L14.6767 22.4421C14.8126 22.3809 14.9105 22.2719 14.9638 22.1443C14.9855 22.0338 14.9769 21.9159 14.9276 21.8054C14.8623 21.6584 14.8651 21.4969 14.9237 21.3572C14.9526 21.2106 15.0376 21.0758 15.1708 20.99L16.2069 20.323C16.3519 20.2294 16.4533 20.095 16.5107 19.945C16.5477 19.7785 16.5335 19.6002 16.456 19.4382L16.4179 19.3698L15.6728 18.1433C15.5489 17.9391 15.5252 17.6885 15.6083 17.4646L15.6142 17.446C15.6215 17.4155 15.6314 17.385 15.6425 17.3552L16.8603 14.0798C16.9118 13.8617 16.8683 13.6298 16.7362 13.445L15.7528 12.0739ZM17.4091 12.5114L17.3358 12.3572C17.3215 12.3532 17.3063 12.3501 17.2909 12.3464L17.4091 12.5114Z" fill="#036FE2"/>
<path opacity="0.2" d="M35.707 48C42.8867 48 48.707 42.1797 48.707 35C48.707 27.8203 42.8867 22 35.707 22C28.5273 22 22.707 27.8203 22.707 35C22.707 42.1797 28.5273 48 35.707 48Z" fill="#036FE2"/>
<path fill-rule="evenodd" clip-rule="evenodd" d="M35.7073 31.6667V29H29.0406V41H42.374V31.6667H35.7073ZM31.7073 39.6667H30.374V38.3333H31.7073V39.6667ZM31.7073 37H30.374V35.6667H31.7073V37ZM31.7073 34.3333H30.374V33H31.7073V34.3333ZM31.7073 31.6667H30.374V30.3333H31.7073V31.6667ZM34.374 39.6667H33.0406V38.3333H34.374V39.6667ZM34.374 37H33.0406V35.6667H34.374V37ZM34.374 34.3333H33.0406V33H34.374V34.3333ZM34.374 31.6667H33.0406V30.3333H34.374V31.6667ZM41.0406 39.6667H35.7073V38.3333H37.0406V37H35.7073V35.6667H37.0406V34.3333H35.7073V33H41.0406V39.6667ZM39.7073 34.3333H38.374V35.6667H39.7073V34.3333ZM39.7073 37H38.374V38.3333H39.7073V37Z" fill="#024D9E"/>
<path d="M20.541 25.1689C21.308 25.1689 21.9305 25.7906 21.9307 26.5576C21.9307 27.3247 21.3081 27.9473 20.541 27.9473C19.774 27.9471 19.1523 27.3246 19.1523 26.5576C19.1525 25.7907 19.7741 25.1691 20.541 25.1689Z" fill="#024D9E"/>
<path d="M10.8174 20.4609C11.5845 20.4609 12.207 21.0825 12.207 21.8496C12.207 22.6167 11.5845 23.2383 10.8174 23.2383C10.0504 23.2381 9.42871 22.6166 9.42871 21.8496C9.42874 21.0826 10.0504 20.4611 10.8174 20.4609Z" fill="#024D9E"/>
<path d="M24.0957 18.8848C24.8627 18.8848 25.4852 19.5065 25.4854 20.2734C25.4854 21.0405 24.8628 21.6631 24.0957 21.6631C23.3287 21.6629 22.707 21.0404 22.707 20.2734C22.7072 19.5066 23.3288 18.8849 24.0957 18.8848Z" fill="#024D9E"/>
<path d="M30.1416 17.6826C30.9087 17.6826 31.5312 18.3052 31.5312 19.0723C31.531 19.8392 30.9086 20.4609 30.1416 20.4609C29.3748 20.4608 28.7532 19.8391 28.7529 19.0723C28.7529 18.3053 29.3746 17.6828 30.1416 17.6826Z" fill="#024D9E"/>
<path d="M21.3174 13.0459C22.0845 13.0459 22.707 13.6684 22.707 14.4355C22.7068 15.2025 22.0843 15.8242 21.3174 15.8242C20.5506 15.8241 19.9289 15.2024 19.9287 14.4355C19.9287 13.6685 20.5504 13.0461 21.3174 13.0459Z" fill="#024D9E"/>
</g>
<defs>
<clipPath id="clip0_7136_2375">
<rect width="48" height="48" fill="white" transform="translate(0.707031)"/>
</clipPath>
</defs>
</svg>
