<svg width="49" height="48" viewBox="0 0 49 48" fill="none" xmlns="http://www.w3.org/2000/svg">
<g clip-path="url(#clip0_7136_2380)">
<path opacity="0.5" d="M16.7694 13.3354C16.9208 13.5467 16.9576 13.8194 16.8672 14.063L15.6426 17.3559C15.5593 17.5799 15.5827 17.8296 15.7067 18.0339L16.4518 19.2608C16.6717 19.6228 16.5636 20.094 16.2075 20.3235L15.1715 20.9908C14.9371 21.1418 14.8481 21.4416 14.9615 21.6962C15.0886 21.9809 14.9611 22.3153 14.6768 22.4429L14.563 22.4941C14.1447 22.6818 14.0221 23.2173 14.3172 23.5683L14.4355 23.7095C14.6411 23.9539 14.975 24.0483 15.2784 23.9485L17.0176 23.3766C17.3455 23.2687 17.7056 23.3883 17.9032 23.6713L19.9363 26.5832C20.1621 26.9067 20.1119 27.3476 19.8188 27.6116L19.6035 27.8048C19.3648 28.0198 19.2824 28.3591 19.395 28.6599L20.4906 31.587C20.5318 31.697 20.5472 31.8139 20.5372 31.9291C19.3756 32.1218 18.365 32.2426 18.2315 32.0329C17.8216 31.3865 19.2261 30.5771 18.895 29.8746C18.6684 29.3943 18.935 28.7801 18.6445 28.5583C18.3277 28.3173 16.939 29.3405 16.3617 29.0164C15.2872 28.4135 9.4995 26.3044 8.98583 27.2726C8.82138 27.583 8.55376 27.9912 8.15135 27.6994C7.73482 27.3974 5.8239 25.8138 6.34421 25.3487C7.1553 24.6234 6.30548 23.0544 7.46041 22.9651C8.18777 22.9082 7.13925 20.0588 8.10478 19.8273C8.44585 19.7457 10.196 18.9602 9.4317 18.3499C9.1883 18.1556 8.94069 17.972 9.1286 17.6376C9.19906 17.5122 11.4382 17.7182 11.7046 17.7094C11.8412 17.7048 11.6874 16.6648 12.3611 16.5924L13.8461 16.4328C15.8729 16.2155 15.3779 13.3296 15.7815 11.9581L16.7694 13.3354Z" fill="#036FE2"/>
<path opacity="0.5" d="M26.4453 13.5459C27.5497 14.1029 28.9428 15.8216 30.21 14.8926C30.7755 14.4786 32.6075 17.5139 31.3389 17.8994C30.9088 18.0298 29.1311 19.4813 29.1641 19.8154C29.2347 20.5172 30.9985 20.6855 31.5137 20.8438C31.9809 20.9878 31.8764 21.7777 32.4512 21.7539C32.9649 21.7316 34.6457 20.0966 34.46 19.4902C34.382 19.2366 34.1445 18.8206 34.3301 18.5703C34.5067 18.3322 37.7805 19.0614 36.9512 20.0537L36.5488 20.5342C35.4218 21.8832 39.1047 22.0151 39.1514 22.123C39.1807 22.2027 39.1061 22.2987 38.9629 22.4102C37.9224 22.1419 36.8313 22 35.707 22C32.7814 22 30.0815 22.9666 27.9092 24.5977C27.9606 24.4567 27.9265 24.2922 27.8066 24.1855L27.5508 23.958C27.3773 23.8036 27.2919 23.5729 27.3232 23.3428L27.8662 19.3789C27.904 19.1023 27.7909 18.8254 27.5703 18.6543L27.4463 18.5596C27.2455 18.4039 27.1331 18.1591 27.1445 17.9053L27.2891 14.6934C27.3012 14.4221 27.1272 14.1767 26.8672 14.0986C26.6136 14.0226 26.4517 13.7933 26.4453 13.5459Z" fill="#036FE2"/>
<path opacity="0.3" d="M15.9872 11.5834C16.4903 11.0006 17.9972 11.4207 18.0995 11.6352L18.8094 13.1274C18.9824 13.4907 19.2617 12.9411 19.4979 13.1274L21.1942 14.4701C22.3659 15.3976 22.4343 13.1437 23.0018 13.1801L26.0038 13.3813C26.1688 13.3924 26.3436 13.4543 26.5262 13.5463C26.5326 13.7937 26.6954 14.0229 26.9491 14.099C27.2092 14.1771 27.3832 14.4225 27.371 14.6938L27.2264 17.9057C27.215 18.1595 27.3274 18.4043 27.5282 18.56L27.6522 18.6547C27.8727 18.8257 27.9857 19.1019 27.9481 19.3783L27.4051 23.3432C27.3738 23.5734 27.4599 23.8041 27.6337 23.9584L27.8885 24.1859C27.9876 24.2741 28.0272 24.4016 28.0096 24.5229C25.6814 26.2362 23.9452 28.7069 23.1639 31.5717C22.4177 31.6926 21.4137 31.8884 20.5028 32.0395C20.5128 31.9244 20.498 31.8076 20.4569 31.6977L19.3602 28.7699C19.2479 28.4694 19.3311 28.1304 19.5692 27.9154L19.785 27.7221C20.0781 27.458 20.1281 27.0162 19.9022 26.6928L17.869 23.7817C17.6715 23.4989 17.3119 23.3791 16.9842 23.4867L15.244 24.059C14.9407 24.1586 14.6067 24.0631 14.4012 23.8188L14.2831 23.6791C13.9885 23.3284 14.1108 22.793 14.5282 22.6049L14.6434 22.5522C14.9272 22.4244 15.0543 22.0914 14.9276 21.807C14.8141 21.5524 14.9033 21.2521 15.1376 21.101L16.1737 20.434C16.5296 20.2044 16.6377 19.7325 16.4178 19.3705L15.6727 18.144C15.5488 17.9397 15.525 17.6892 15.6083 17.4652L16.8329 14.1733C16.9233 13.9297 16.8865 13.6569 16.7352 13.4457L15.7469 12.0668C15.8048 11.8705 15.8823 11.7052 15.9872 11.5834Z" fill="#036FE2"/>
<path fill-rule="evenodd" clip-rule="evenodd" d="M15.6143 10.9714C15.963 10.9125 16.3131 11.0443 16.5401 11.3103C17.178 11.2041 18.0235 11.4757 18.0996 11.6345L18.8096 13.1267C18.9826 13.4895 19.2619 12.9407 19.4981 13.1267L21.1944 14.4695C22.3662 15.3968 22.4351 13.142 23.003 13.1794L25.668 13.3572C25.7068 13.2629 25.7746 13.1812 25.8633 13.1248C26.0119 13.0306 26.1994 13.0212 26.3565 13.1003C26.6759 13.2615 27.0031 13.499 27.3028 13.7195C27.6164 13.9502 27.9118 14.1714 28.208 14.3474C28.5045 14.5235 28.7618 14.6288 28.9873 14.656C29.1937 14.6808 29.3904 14.6423 29.5996 14.489C29.8709 14.2907 30.171 14.3476 30.3575 14.4285C30.5419 14.5085 30.7076 14.6442 30.8438 14.781C31.1222 15.0607 31.3936 15.4621 31.5967 15.8767C31.7969 16.2853 31.96 16.7664 31.9629 17.2058C31.9643 17.4294 31.9243 17.6764 31.794 17.8972C31.6566 18.1297 31.4408 18.2962 31.169 18.3787C31.1621 18.3817 31.1277 18.3972 31.0596 18.4373C30.9854 18.481 30.8922 18.5413 30.7862 18.616C30.5741 18.7654 30.3247 18.9602 30.0879 19.1619C29.8496 19.3649 29.6335 19.5667 29.4844 19.7302C29.4583 19.7589 29.4357 19.7859 29.416 19.8093C29.4242 19.8151 29.4324 19.8225 29.4424 19.8289C29.5657 19.9076 29.7557 19.9841 29.9971 20.0544C30.2328 20.1231 30.4866 20.1774 30.7246 20.2263C30.9453 20.2716 31.1872 20.3183 31.3457 20.3669L31.4385 20.4001C31.6445 20.4878 31.7814 20.6337 31.8731 20.7664C31.9657 20.9004 32.0386 21.0655 32.0762 21.1423C32.0973 21.1855 32.1137 21.2165 32.128 21.24C32.1346 21.2369 32.1431 21.2344 32.1514 21.2302C32.2143 21.1984 32.2983 21.1465 32.3975 21.074C32.5959 20.9289 32.8269 20.724 33.0401 20.4988C33.2546 20.272 33.436 20.0403 33.5498 19.8455C33.6067 19.7481 33.6384 19.6737 33.6524 19.6248C33.6542 19.6182 33.6544 19.6118 33.6553 19.6072C33.6426 19.5708 33.6263 19.524 33.5996 19.4548C33.569 19.3752 33.5291 19.2714 33.4991 19.1619C33.4468 18.9711 33.3745 18.5971 33.6143 18.2732L33.6641 18.2156C33.7828 18.0949 33.9269 18.0603 33.9746 18.0496C34.0563 18.0313 34.1394 18.0268 34.209 18.0261C34.3518 18.0249 34.5209 18.0417 34.6944 18.0691C35.0447 18.1244 35.4776 18.2321 35.8789 18.3826C36.2642 18.5271 36.6916 18.7361 36.9659 19.0261C37.1083 19.1767 37.2434 19.3863 37.2676 19.6501C37.2926 19.9262 37.1882 20.1742 37.0205 20.3748L36.6182 20.8552C36.5586 20.9266 36.5346 20.9735 36.5254 20.9968L36.5274 20.9988C36.6098 21.088 36.8386 21.2057 37.2276 21.3123C37.5885 21.4111 37.9926 21.4759 38.3243 21.5242C38.4819 21.5471 38.6367 21.5684 38.7442 21.5857C38.7974 21.5943 38.8567 21.6045 38.9073 21.6169C38.9305 21.6227 38.9706 21.6342 39.0137 21.6521C39.0348 21.6609 39.0732 21.6779 39.1153 21.7068C39.1406 21.7242 39.1984 21.7664 39.2491 21.8406L39.2959 21.9246L39.3057 21.95C39.383 22.159 39.3276 22.3482 39.2637 22.4675C39.2598 22.4748 39.2541 22.481 39.25 22.488C38.2927 22.2175 37.2902 22.0554 36.2569 22.0125C36.0813 21.9222 35.9177 21.8132 35.791 21.6755C35.6271 21.4973 35.5059 21.2537 35.5215 20.9587C35.5366 20.6796 35.6706 20.4292 35.8506 20.2136L36.253 19.7322C36.2487 19.7271 36.2452 19.72 36.2393 19.7136C36.1275 19.5954 35.8798 19.4509 35.5284 19.3191C35.1932 19.1934 34.8261 19.1017 34.5391 19.0564C34.5321 19.0553 34.5245 19.0545 34.5176 19.0535C34.5226 19.0668 34.5268 19.0812 34.5323 19.0955C34.5579 19.1622 34.597 19.2597 34.6231 19.3445L34.6543 19.4959C34.6705 19.6443 34.6465 19.7846 34.6143 19.8982C34.5698 20.0547 34.4955 20.2083 34.4131 20.3494C34.2479 20.6322 34.0119 20.926 33.7657 21.1863C33.5181 21.4478 33.2431 21.6943 32.9883 21.8806C32.8613 21.9735 32.7298 22.0579 32.6035 22.1218C32.5174 22.1655 32.4058 22.2146 32.2832 22.239L32.1573 22.2546C31.8806 22.266 31.6489 22.1726 31.4727 22.0085C31.3207 21.8669 31.2312 21.6898 31.1787 21.5828C31.1123 21.4472 31.0878 21.3883 31.0508 21.3347C31.0458 21.3274 31.041 21.3226 31.0381 21.3191C30.9372 21.2897 30.7689 21.2562 30.5235 21.2058C30.2841 21.1567 29.9958 21.0953 29.7178 21.0144C29.4452 20.935 29.1474 20.8269 28.9043 20.6716C28.6676 20.5204 28.3925 20.2635 28.3526 19.865C28.3397 19.734 28.3732 19.6232 28.3985 19.5584C28.4259 19.4882 28.4615 19.4242 28.4952 19.3718C28.5629 19.2667 28.6523 19.1582 28.7452 19.0564C28.9332 18.8502 29.1834 18.6185 29.4385 18.4011C29.6952 18.1825 29.9693 17.9682 30.21 17.7986C30.33 17.7141 30.4469 17.6368 30.5518 17.575C30.648 17.5183 30.7657 17.456 30.8789 17.4216C30.9222 17.4085 30.9293 17.3952 30.9327 17.3894C30.9427 17.3724 30.9635 17.3208 30.9629 17.2126C30.9615 16.9877 30.869 16.6627 30.6993 16.3162C30.5324 15.9757 30.3191 15.6712 30.1348 15.4861C30.0962 15.4473 30.062 15.4196 30.0352 15.3982C29.6569 15.6264 29.2597 15.6961 28.8682 15.6492C28.4423 15.5979 28.0448 15.4132 27.6973 15.2068C27.617 15.1591 27.537 15.1082 27.458 15.0564L27.3301 17.9285C27.3261 18.0203 27.3664 18.1083 27.4375 18.1638L27.5606 18.2595C27.922 18.5398 28.1089 18.9929 28.0469 19.447L27.5039 23.4109C27.4953 23.4755 27.5191 23.5412 27.5674 23.5847L27.8243 23.8113C28.0143 23.9803 28.1098 24.2123 28.1153 24.446C27.8613 24.6291 27.6148 24.8217 27.375 25.0222C27.2038 25.1659 27.036 25.3137 26.8721 25.4656C26.7741 25.1878 26.7631 24.8801 26.8545 24.5906C26.5109 24.2207 26.3457 23.7135 26.4151 23.2058L26.9405 19.3679L26.92 19.3523L26.916 19.3494C26.4572 18.9936 26.2017 18.4367 26.2276 17.8601L26.3594 14.9285C26.1099 14.7932 25.9071 14.5982 25.7647 14.3669L23.4092 14.2087C23.4057 14.2163 23.4021 14.2252 23.3985 14.2332C23.3488 14.3414 23.283 14.4858 23.209 14.6257C23.0875 14.8555 22.8176 15.3357 22.2998 15.5671C21.7234 15.8245 21.1732 15.6597 20.7481 15.3796L20.5743 15.2537L19.2608 14.2136C19.1662 14.2382 19.0471 14.2589 18.9112 14.2527C18.672 14.2417 18.4397 14.1548 18.2471 13.9978C18.1156 13.8905 18.0242 13.7687 17.961 13.6599L17.9063 13.5564L17.8955 13.5339C17.9277 13.754 17.9201 13.9798 17.8682 14.2L17.8047 14.4109L17.7989 14.4236L17.7705 14.5212L16.6202 17.6111L17.3067 18.741C17.5895 19.2067 17.6328 19.7523 17.4717 20.2332C17.3618 20.6474 17.1034 21.0231 16.7159 21.2732L15.9952 21.7361C16.025 21.9768 15.9975 22.2169 15.92 22.4402C15.8946 22.5351 15.8621 22.628 15.8194 22.7166L16.7051 22.4265L16.8457 22.3865C17.5523 22.2165 18.3 22.4934 18.7227 23.0984L20.7559 26.0105C21.0898 26.4889 21.1564 27.0804 20.9805 27.6013C20.8943 27.9244 20.7193 28.2265 20.4551 28.4646L20.4532 28.4656L20.4053 28.5076L21.294 30.8826C21.7917 30.793 22.2734 30.7059 22.7569 30.6238C23.023 30.5786 23.2787 30.5398 23.503 30.5105C23.3754 30.8572 23.2622 31.2112 23.1641 31.571C22.6954 31.647 22.1243 31.7508 21.5391 31.8562C21.5393 31.9094 21.5378 31.9625 21.5332 32.0154C21.4937 32.4702 21.1505 32.84 20.7002 32.9148C20.1164 33.0116 19.5328 33.098 19.0664 33.1296C18.8384 33.1451 18.5919 33.1512 18.3702 33.1257C18.2604 33.1131 18.1141 33.088 17.9629 33.03C17.8237 32.9766 17.5673 32.8519 17.3877 32.5701L17.3868 32.5681C17.0553 32.0452 17.1398 31.5125 17.2764 31.1599C17.3969 30.8492 17.601 30.5637 17.7129 30.4031C17.813 30.2594 17.871 30.1663 17.9092 30.1013C17.8736 29.9961 17.8509 29.8935 17.834 29.7986C17.6267 29.8795 17.3779 29.9713 17.128 30.0252C16.887 30.077 16.4699 30.138 16.0508 29.9734L15.8721 29.8884C15.4344 29.6429 13.8056 28.9894 12.1827 28.5144C11.379 28.2792 10.638 28.107 10.0918 28.0457C9.92127 28.0265 9.792 28.0227 9.69925 28.0242C9.59482 28.1811 9.45198 28.3643 9.26175 28.5085C9.07368 28.651 8.79965 28.7899 8.45316 28.7986C8.1025 28.8073 7.80012 28.6794 7.56449 28.5085C7.3153 28.3278 6.68364 27.8158 6.16898 27.2712C5.91964 27.0073 5.6375 26.6737 5.45902 26.3269C5.37088 26.1555 5.26684 25.9031 5.25589 25.6072C5.24357 25.2689 5.35809 24.8881 5.67777 24.6023L5.68461 24.5916C5.69245 24.5758 5.7064 24.5411 5.71976 24.4773C5.75324 24.3169 5.75446 24.1614 5.77543 23.8503C5.79092 23.6204 5.82077 23.1774 6.0391 22.7859C6.20586 22.4873 6.4467 22.2731 6.73246 22.1375C6.72569 21.9786 6.71233 21.7806 6.69535 21.5291C6.67116 21.1707 6.64195 20.6779 6.71195 20.2468C6.77601 19.8531 7.00666 19.0617 7.87113 18.8543C7.88456 18.8493 7.98124 18.817 8.13578 18.7439C8.19756 18.7147 8.25838 18.68 8.31839 18.6472C8.3006 18.6222 8.28287 18.5965 8.26664 18.5701C8.15621 18.3903 8.06502 18.1533 8.06253 17.8709C8.06024 17.5928 8.1444 17.3474 8.25687 17.1472L8.31156 17.0603C8.4449 16.8709 8.60838 16.7767 8.67875 16.74C8.77514 16.6898 8.86168 16.664 8.91019 16.6511C9.009 16.625 9.10023 16.6143 9.15531 16.6091C9.27433 16.598 9.40899 16.5956 9.53031 16.5964C9.78126 16.5982 10.0974 16.6131 10.4004 16.6306C10.584 16.6412 10.7708 16.6535 10.9434 16.6648C10.9986 16.5152 11.078 16.3467 11.1993 16.1882C11.4334 15.8827 11.7902 15.6473 12.2539 15.5974L13.7393 15.4382L13.8907 15.4099C14.0203 15.3721 14.0915 15.3077 14.1504 15.2302C14.2597 15.0862 14.3621 14.8366 14.4405 14.4363C14.5181 14.0393 14.5537 13.6033 14.5977 13.115C14.6379 12.6685 14.6887 12.1295 14.8223 11.6755L14.8711 11.5427C15.0074 11.2441 15.2847 11.0273 15.6143 10.9714ZM15.753 12.074C15.4053 13.4852 15.8174 16.2209 13.8457 16.4324L12.3614 16.5925C11.6878 16.6649 11.8406 17.7037 11.7041 17.7087C11.4372 17.7175 9.2029 17.5129 9.12796 17.6375C8.94047 17.9716 9.18842 18.1552 9.43168 18.3494C10.1958 18.9595 8.44604 19.7451 8.10453 19.8269C7.13912 20.0585 8.18712 22.9073 7.46 22.9646C6.30548 23.054 7.15435 24.623 6.34378 25.3484C5.82407 25.8136 7.73454 27.3966 8.1514 27.699C8.55372 27.9906 8.82095 27.5825 8.98539 27.2722C9.50045 26.305 15.2866 28.4134 16.3614 29.0164C16.9385 29.3404 18.3274 28.3178 18.6446 28.5584C18.9344 28.7802 18.6687 29.3938 18.8946 29.8738C19.2257 30.5762 17.8222 31.3866 18.2315 32.033C18.3323 32.1898 18.9254 32.1607 19.7051 32.0554L20.5039 31.9334C20.5002 31.8533 20.4855 31.7733 20.4571 31.697L19.3604 28.7693C19.2918 28.5857 19.296 28.3878 19.3643 28.2127C19.3993 28.0586 19.481 27.9149 19.6035 27.8044L19.8184 27.6111C19.9116 27.527 19.9785 27.4246 20.0215 27.3142C20.0588 27.1504 20.0459 26.976 19.9746 26.8181L19.9034 26.6921L17.8692 23.781C17.6717 23.4984 17.312 23.3778 16.9844 23.4851L15.2442 24.0584L15.1289 24.0867C14.8594 24.1317 14.5821 24.0317 14.4024 23.8181L14.2832 23.6775C14.1104 23.4717 14.0813 23.2028 14.1709 22.9773C14.2153 22.7733 14.3511 22.5889 14.5625 22.4939L14.6768 22.4421C14.8128 22.3809 14.9106 22.2719 14.9639 22.1443C14.9856 22.0338 14.977 21.916 14.9278 21.8054C14.8624 21.6584 14.8653 21.4969 14.9239 21.3572C14.9527 21.2107 15.0378 21.0759 15.1709 20.99L16.2071 20.323C16.3521 20.2294 16.4534 20.0951 16.5108 19.9451C16.5478 19.7785 16.5336 19.6002 16.4561 19.4382L16.418 19.3699L15.6729 18.1433C15.549 17.9391 15.5253 17.6885 15.6084 17.4646L15.6143 17.446C15.6216 17.4155 15.6316 17.385 15.6426 17.3552L16.8604 14.0798C16.9119 13.8618 16.8685 13.6298 16.7364 13.4451L15.753 12.074ZM17.4092 12.5115L17.336 12.3572C17.3216 12.3532 17.3064 12.3502 17.291 12.3464L17.4092 12.5115Z" fill="#036FE2"/>
<path opacity="0.2" d="M35.707 48C42.8867 48 48.707 42.1797 48.707 35C48.707 27.8203 42.8867 22 35.707 22C28.5273 22 22.707 27.8203 22.707 35C22.707 42.1797 28.5273 48 35.707 48Z" fill="#036FE2"/>
<path fill-rule="evenodd" clip-rule="evenodd" d="M33.7071 36.1669C32.1471 36.1669 29.0404 36.9469 29.0404 38.5003V39.6669H38.3737V38.5003C38.3737 36.9469 35.2671 36.1669 33.7071 36.1669ZM30.6004 38.3336C31.1604 37.9469 32.5137 37.5003 33.7071 37.5003C34.9004 37.5003 36.2537 37.9469 36.8137 38.3336H30.6004ZM33.7071 35.0003C34.9937 35.0003 36.0404 33.9536 36.0404 32.6669C36.0404 31.3803 34.9937 30.3336 33.7071 30.3336C32.4204 30.3336 31.3737 31.3803 31.3737 32.6669C31.3737 33.9536 32.4204 35.0003 33.7071 35.0003ZM33.7071 31.6669C34.2604 31.6669 34.7071 32.1136 34.7071 32.6669C34.7071 33.2203 34.2604 33.6669 33.7071 33.6669C33.1537 33.6669 32.7071 33.2203 32.7071 32.6669C32.7071 32.1136 33.1537 31.6669 33.7071 31.6669ZM38.4004 36.2069C39.1737 36.7669 39.7071 37.5136 39.7071 38.5003V39.6669H42.3737V38.5003C42.3737 37.1536 40.0404 36.3869 38.4004 36.2069ZM37.7071 35.0003C38.9937 35.0003 40.0404 33.9536 40.0404 32.6669C40.0404 31.3803 38.9937 30.3336 37.7071 30.3336C37.3471 30.3336 37.0137 30.4203 36.7071 30.5669C37.1271 31.1603 37.3737 31.8869 37.3737 32.6669C37.3737 33.4469 37.1271 34.1736 36.7071 34.7669C37.0137 34.9136 37.3471 35.0003 37.7071 35.0003Z" fill="#024D9E"/>
<path d="M20.541 25.1689C21.308 25.1689 21.9305 25.7906 21.9307 26.5576C21.9307 27.3247 21.3081 27.9473 20.541 27.9473C19.774 27.9471 19.1523 27.3246 19.1523 26.5576C19.1525 25.7907 19.7741 25.1691 20.541 25.1689Z" fill="#024D9E"/>
<path d="M10.8174 20.4609C11.5845 20.4609 12.207 21.0825 12.207 21.8496C12.207 22.6167 11.5845 23.2383 10.8174 23.2383C10.0504 23.2381 9.42871 22.6166 9.42871 21.8496C9.42874 21.0826 10.0504 20.4611 10.8174 20.4609Z" fill="#024D9E"/>
<path d="M24.0957 18.8848C24.8627 18.8848 25.4852 19.5065 25.4854 20.2734C25.4854 21.0405 24.8628 21.6631 24.0957 21.6631C23.3287 21.6629 22.707 21.0404 22.707 20.2734C22.7072 19.5066 23.3288 18.8849 24.0957 18.8848Z" fill="#024D9E"/>
<path d="M30.1416 17.6826C30.9087 17.6826 31.5312 18.3052 31.5312 19.0723C31.531 19.8392 30.9086 20.4609 30.1416 20.4609C29.3748 20.4608 28.7532 19.8391 28.7529 19.0723C28.7529 18.3053 29.3746 17.6828 30.1416 17.6826Z" fill="#024D9E"/>
<path d="M21.3174 13.0459C22.0845 13.0459 22.707 13.6684 22.707 14.4355C22.7068 15.2025 22.0843 15.8242 21.3174 15.8242C20.5506 15.8241 19.9289 15.2024 19.9287 14.4355C19.9287 13.6685 20.5504 13.0461 21.3174 13.0459Z" fill="#024D9E"/>
</g>
<defs>
<clipPath id="clip0_7136_2380">
<rect width="48" height="48" fill="white" transform="translate(0.707031)"/>
</clipPath>
</defs>
</svg>
