<svg width="49" height="48" viewBox="0 0 49 48" fill="none" xmlns="http://www.w3.org/2000/svg">
<path fill-rule="evenodd" clip-rule="evenodd" d="M36.707 28C41.1253 28 44.707 31.5817 44.707 36C44.707 40.4183 41.1253 44 36.707 44C32.2888 44 28.707 40.4183 28.707 36C28.707 31.5817 32.2888 28 36.707 28ZM39.1314 31.9594L36.707 34.3838L34.2827 31.9594L32.6664 33.5756L35.0908 36L32.6664 38.4244L34.2827 40.0406L36.707 37.6162L39.1314 40.0406L40.7476 38.4244L38.3233 36L40.7476 33.5756L39.1314 31.9594Z" fill="#024D9E"/>
<path d="M12.707 4C17.1253 4 20.707 7.58172 20.707 12C20.707 16.4183 17.1253 20 12.707 20C8.28875 20 4.70703 16.4183 4.70703 12C4.70703 7.58172 8.28875 4 12.707 4ZM16.1759 7.94286L11.3675 12.7622L9.24737 10.6529L7.62132 12.279L11.3675 16.0143L17.802 9.56891L16.1759 7.94286Z" fill="#036FE2"/>
<path opacity="0.5" d="M11.0393 42.2461C10.6891 42.6728 10.0589 42.7354 9.63197 42.3853C9.20502 42.0352 9.1429 41.405 9.49274 40.978L38.3744 5.75408C38.7246 5.327 39.3547 5.26467 39.7818 5.61485C40.2088 5.96503 40.2712 6.59511 39.921 7.02219L11.0393 42.2461Z" fill="#036FE2"/>
</svg>
