<svg width="81" height="80" viewBox="0 0 81 80" fill="none" xmlns="http://www.w3.org/2000/svg">
<path opacity="0.5" d="M25.6549 15.2637C25.9622 15.6925 26.0369 16.246 25.8533 16.7406L23.3676 23.4244C23.1987 23.879 23.2461 24.3859 23.4977 24.8005L25.0102 27.2908C25.4565 28.0257 25.237 28.9821 24.5143 29.448L22.4114 30.8024C21.9357 31.109 21.755 31.7174 21.9852 32.2343C22.2431 32.8121 21.9844 33.4909 21.4072 33.7499L21.1763 33.8538C20.3272 34.2348 20.0783 35.3218 20.6773 36.0342L20.9175 36.3209C21.3349 36.817 22.0125 37.0086 22.6284 36.8059L26.1585 35.6452C26.8241 35.4262 27.555 35.6689 27.9562 36.2434L32.083 42.1539C32.5413 42.8104 32.4393 43.7055 31.8443 44.2413L31.4073 44.6334C30.9229 45.0698 30.7557 45.7584 30.9843 46.369L33.2081 52.3105C33.2916 52.5337 33.323 52.7711 33.3026 53.0048C30.9449 53.3959 28.8935 53.6411 28.6225 53.2155C27.7905 51.9035 30.6414 50.2606 29.9692 48.8346C29.5093 47.8597 30.0506 46.613 29.4609 46.1629C28.8179 45.6737 25.9992 47.7505 24.8274 47.0927C22.6462 45.8689 10.8985 41.5879 9.85584 43.5532C9.52204 44.1832 8.97884 45.0118 8.16204 44.4195C7.31657 43.8064 3.43782 40.5921 4.49393 39.648C6.14027 38.1758 4.41532 34.9911 6.75957 34.8099C8.23596 34.6943 6.10769 28.9107 8.0675 28.4407C8.7598 28.2751 12.3123 26.6808 10.7609 25.4421C10.2668 25.0476 9.76423 24.675 10.1456 23.9962C10.2887 23.7416 14.8337 24.1599 15.3743 24.1419C15.6516 24.1326 15.3395 22.0216 16.707 21.8747L19.7211 21.5508C23.8352 21.1097 22.8303 15.2519 23.6496 12.4681L25.6549 15.2637Z" fill="#036FE2"/>
<path d="M23.3707 10.8242C23.9985 10.7177 24.6319 10.9791 25.0032 11.4964L27.0084 14.2926H27.0101C27.6392 15.1705 27.7921 16.3049 27.4153 17.3199V17.3216L24.943 23.9687L26.4355 26.4264C27.3493 27.9321 26.899 29.893 25.4166 30.8486L23.6556 31.983C23.9818 33.2107 23.4398 34.5212 22.3177 35.152L25.638 34.0615L25.8952 33.9882C27.0995 33.6986 28.3688 34.12 29.1601 35.0755L29.3229 35.2887L33.4489 41.2002C34.3878 42.5452 34.1796 44.3797 32.959 45.4791L32.9573 45.4824L32.5635 45.8356L34.7689 51.7259C34.9407 52.1847 35.0041 52.6722 34.9625 53.15C34.8963 53.9076 34.326 54.5244 33.5758 54.649C32.3917 54.8455 31.2209 55.0159 30.2929 55.0787C29.8376 55.1096 29.3628 55.1203 28.9453 55.0722C28.7387 55.0484 28.475 55.0037 28.208 54.9013C27.9604 54.8063 27.5222 54.5901 27.2168 54.1103L27.2151 54.1087C26.6252 53.1783 26.7704 52.2285 27.0231 51.5761C27.249 50.993 27.6343 50.4497 27.8678 50.1145C28.1391 49.7253 28.2879 49.5002 28.3707 49.3235C28.2143 48.921 28.1468 48.5363 28.1185 48.2168C28.1172 48.2028 28.1163 48.1884 28.1152 48.1744C28.067 48.194 28.0171 48.2154 27.9655 48.2363C27.501 48.4237 26.9005 48.6569 26.3069 48.7848C25.7696 48.9005 24.8571 49.0199 24.012 48.5455C23.0876 48.0269 19.7494 46.6932 16.4469 45.7265C14.8087 45.247 13.2815 44.8894 12.1419 44.7614C11.665 44.7078 11.3235 44.7038 11.1019 44.7223C10.9006 45.05 10.6066 45.4633 10.1969 45.7737C9.85848 46.0301 9.37425 46.2728 8.76625 46.288C8.15124 46.3033 7.61346 46.08 7.18422 45.7688C6.69357 45.413 5.43092 44.3893 4.40427 43.303C3.90416 42.7738 3.3594 42.1265 3.02081 41.4687C2.85341 41.1434 2.66754 40.6858 2.64809 40.1601C2.62615 39.564 2.82709 38.9032 3.38377 38.4056C3.43908 38.3559 3.51913 38.2567 3.58233 37.9547C3.65736 37.5961 3.66176 37.2417 3.70278 36.6331C3.73463 36.1605 3.79335 35.3386 4.19269 34.623C4.53147 34.0159 5.03869 33.6 5.65427 33.3649C5.64907 32.9849 5.6121 32.4997 5.56964 31.8707C5.52014 31.1375 5.4645 30.1792 5.59894 29.3512C5.72326 28.5861 6.14972 27.187 7.67901 26.8203H7.68064C7.66106 26.825 7.71137 26.8116 7.84503 26.7601C7.96479 26.7139 8.11759 26.6493 8.28611 26.5696C8.54873 26.4454 8.81835 26.2986 9.05434 26.1464C8.93064 26.0125 8.80586 25.8639 8.7044 25.6989C8.50783 25.379 8.34921 24.9634 8.3447 24.4684C8.3404 23.98 8.48833 23.5436 8.69301 23.1793L8.78416 23.0328C9.0076 22.7155 9.28205 22.5577 9.40102 22.4957C9.56387 22.4109 9.71023 22.3668 9.7949 22.3444C9.96724 22.2988 10.1301 22.2808 10.2344 22.2711C10.4576 22.2503 10.7157 22.245 10.9586 22.2467C11.4583 22.2502 12.0922 22.2812 12.7067 22.3167C13.1784 22.3439 13.66 22.3752 14.082 22.403C14.1818 22.0662 14.3467 21.656 14.637 21.2767C15.0571 20.7278 15.6939 20.3069 16.5283 20.2171L19.5426 19.8932H19.5442C20.1155 19.8318 20.4084 19.6179 20.6282 19.3284C20.8993 18.9711 21.1224 18.4022 21.2858 17.5673C21.4479 16.7388 21.5196 15.8341 21.6081 14.8509C21.6903 13.937 21.7913 12.8792 22.0508 11.9977C22.2306 11.3867 22.7428 10.9307 23.3707 10.8242ZM23.6491 12.4681C22.8299 15.2518 23.835 21.1086 19.7217 21.5501L16.7073 21.874C15.3399 22.0209 15.6515 24.1317 15.3743 24.1412L15 24.1298C13.766 24.0653 10.2736 23.774 10.1465 23.9964C9.76523 24.6749 10.2662 25.0474 10.7601 25.4417C12.3112 26.6802 8.76105 28.2754 8.06801 28.4414C6.10819 28.9113 8.23581 34.6945 6.75942 34.8102L6.55108 34.8362C4.52032 35.1895 6.0882 38.2212 4.49379 39.6474C3.43769 40.5915 7.31695 43.8065 8.16241 44.4196C8.97879 45.0113 9.52133 44.1835 9.85512 43.5537C10.8977 41.5884 22.6458 45.8681 24.8275 47.0921C25.9992 47.7499 28.8182 45.6735 29.4612 46.1627C30.0507 46.6129 29.5091 47.8604 29.9691 48.8352C30.6403 50.2611 27.7913 51.9033 28.623 53.2151C28.8601 53.5876 30.4603 53.4467 32.4365 53.1435L33.3024 53.0052C33.3227 52.7714 33.2916 52.5334 33.208 52.3102L30.9847 46.3694C30.7562 45.7588 30.9235 45.0692 31.4079 44.6328L31.8441 44.2405C32.4016 43.7382 32.5272 42.9204 32.1631 42.2793L32.0833 42.1539L27.9557 36.2441C27.5546 35.6697 26.8243 35.4262 26.1588 35.6451L22.6286 36.8056L22.3958 36.8642C21.9261 36.9435 21.4437 36.807 21.0856 36.4931L20.9179 36.3206L20.6771 36.0341C20.1157 35.3663 20.2991 34.369 21.0237 33.9329L21.1767 33.8532L21.4079 33.7506C21.9126 33.5239 22.174 32.9753 22.0589 32.455L21.9857 32.2337C21.7556 31.7169 21.9365 31.1096 22.4121 30.803L24.515 29.4472C25.237 28.9812 25.4559 28.0253 25.0097 27.2907L23.4977 24.8004C23.2462 24.3861 23.1989 23.8795 23.3675 23.4251L25.8528 16.7405C26.0135 16.3078 25.9761 15.8303 25.7584 15.4303L25.6543 15.2643L23.6491 12.4681Z" fill="#036FE2"/>
<path d="M46.4364 50.1953L51.1593 40.7527L55.3247 54.0853L57.2713 50.1953H63.3014V53.5286H59.3314L54.6102 62.9711L50.4431 49.6369L48.4981 53.5286H43.3014V50.1953H46.4364Z" fill="#036FE2"/>
<path opacity="0.3" d="M53.3014 38.1852C60.8549 38.1852 66.9781 44.3085 66.9781 51.862C66.9781 59.4155 60.8549 65.5388 53.3014 65.5388C45.7479 65.5388 39.6246 59.4155 39.6246 51.862C39.6246 44.3085 45.7479 38.1852 53.3014 38.1852Z" fill="#036FE2"/>
<path opacity="0.5" d="M45.2936 15.6917C47.5354 16.8224 50.3631 20.3109 52.9352 18.4245C54.0832 17.5841 57.8019 23.7465 55.2252 24.528C54.3522 24.793 50.7467 27.7379 50.8128 28.4163C50.9548 29.8415 54.5339 30.1848 55.58 30.5062C56.5288 30.798 56.3166 32.4011 57.4827 32.3535C58.5244 32.3098 61.9358 28.9903 61.5599 27.7588C61.4017 27.2439 60.9227 26.3985 61.2994 25.8903C61.6626 25.4087 68.301 26.8862 66.6185 28.8997L65.8014 29.8763C63.5167 32.611 70.9704 32.8817 71.083 33.1006C71.385 33.9152 66.3839 35.6417 64.6491 37.4072C61.5323 34.9789 57.6155 33.5286 53.3584 33.5286C51.202 33.5287 49.1335 33.903 47.2109 34.5849L48.1777 27.5325C48.2546 26.9708 48.0235 26.4086 47.5755 26.0612L47.3248 25.8675C46.9175 25.5515 46.6897 25.056 46.7129 24.541L47.0058 18.0192C47.0302 17.4689 46.6773 16.9731 46.1497 16.8148C45.6349 16.6604 45.3066 16.1939 45.2936 15.6917Z" fill="#036FE2"/>
<path d="M44.2094 14.9891C44.4568 14.8324 44.7697 14.8169 45.0313 14.9484C45.6641 15.2677 46.317 15.7411 46.9275 16.1903C47.5609 16.6562 48.1675 17.11 48.7781 17.4728C49.3894 17.836 49.9374 18.0659 50.4317 18.1255C50.894 18.1809 51.3416 18.0911 51.8054 17.7512C52.283 17.4022 52.8152 17.498 53.1629 17.6486C53.5069 17.798 53.8234 18.0559 54.0922 18.3257C54.6403 18.8762 55.1822 19.6736 55.588 20.5018C55.9887 21.3199 56.3051 22.2692 56.3106 23.1222C56.3132 23.5552 56.2359 24.0196 55.9933 24.4308C55.7388 24.8615 55.3401 25.1711 54.8295 25.326C54.8245 25.3278 54.8008 25.336 54.7579 25.3569C54.7086 25.3811 54.6446 25.4157 54.5675 25.4611C54.4112 25.5532 54.2175 25.6803 53.9994 25.8338C53.5636 26.1409 53.0531 26.5394 52.5688 26.952C52.0818 27.3669 51.6383 27.7825 51.3285 28.1222C51.2169 28.2448 51.1319 28.3484 51.0714 28.4299C51.1144 28.4746 51.1798 28.5336 51.2797 28.5975C51.5515 28.7711 51.9565 28.9301 52.4516 29.0744C52.9377 29.216 53.4605 29.3283 53.9441 29.4276C54.3982 29.5208 54.8767 29.6138 55.1876 29.7092L55.3569 29.771C55.734 29.9313 55.9875 30.1991 56.1609 30.4497C56.3387 30.7071 56.478 31.0235 56.5597 31.1903C56.6638 31.4028 56.721 31.4822 56.7566 31.5158L56.7582 31.5174C56.7636 31.5185 56.7756 31.519 56.794 31.5191C56.8083 31.5145 56.8616 31.4996 56.9584 31.4507C57.0976 31.3802 57.2757 31.2681 57.4825 31.117C57.8957 30.815 58.3715 30.3912 58.8106 29.9273C59.2518 29.461 59.6316 28.9812 59.8718 28.5698C59.9918 28.3643 60.0626 28.1987 60.0964 28.0799C60.1115 28.0268 60.1147 27.9929 60.116 27.9774C60.0874 27.8899 60.0466 27.7816 59.9841 27.6193C59.9221 27.4583 59.8454 27.254 59.7872 27.0415C59.6836 26.6628 59.5576 25.9793 59.9907 25.3944L60.0753 25.2967C60.2773 25.0912 60.5252 25.0306 60.6157 25.0103C60.7638 24.9771 60.9185 24.966 61.0535 24.9647C61.3294 24.9622 61.6622 24.9963 62.0089 25.051C62.7085 25.1614 63.5759 25.3782 64.3787 25.6792C65.1543 25.9701 65.9885 26.3819 66.5157 26.939C66.788 27.2269 67.0361 27.6153 67.0805 28.0962C67.1206 28.5357 66.9804 28.9407 66.7322 29.2892L66.6199 29.4341L65.8028 30.4107C65.5846 30.672 65.5636 30.8103 65.5619 30.8371C65.5615 30.8461 65.5627 30.8517 65.5652 30.8583C65.5696 30.8689 65.5845 30.8984 65.6238 30.9413C65.8289 31.1639 66.3399 31.4131 67.131 31.6297C67.875 31.8334 68.7046 31.9679 69.3787 32.0659C69.7023 32.113 70.0133 32.1548 70.2299 32.1896C70.337 32.2069 70.451 32.2265 70.5457 32.2499C70.5897 32.2607 70.6618 32.2809 70.7361 32.3117C70.7728 32.327 70.8383 32.3562 70.9086 32.4045C70.9514 32.4339 71.0473 32.5059 71.1316 32.6291L71.2097 32.7707L71.226 32.8114C71.3596 33.1722 71.2652 33.5016 71.1511 33.7147C71.0436 33.915 70.8902 34.0751 70.7589 34.1932C70.4918 34.4332 70.1226 34.6702 69.7433 34.8915C69.0006 35.3245 67.9039 35.8716 66.9894 36.3758C66.1929 36.815 65.4834 37.2496 64.9727 37.6616C64.532 37.3021 64.0757 36.9608 63.6023 36.6428C64.2856 36.0143 65.2606 35.4274 66.1853 34.9175C67.084 34.422 67.901 34.0085 68.5893 33.6252C68.0045 33.5315 67.3288 33.4122 66.6915 33.2378C65.8894 33.0181 64.9523 32.6732 64.3966 32.0692C64.0896 31.7351 63.8699 31.2872 63.8985 30.7476C63.9262 30.234 64.1739 29.7635 64.5252 29.343L65.3422 28.3648C65.3934 28.3033 65.4124 28.2642 65.4187 28.2459C65.4126 28.2282 65.3889 28.1738 65.3048 28.0848C65.0482 27.8138 64.5133 27.5082 63.7944 27.2385C63.1021 26.9789 62.3441 26.7902 61.7501 26.6965C61.6257 26.6769 61.5116 26.663 61.4116 26.6525C61.4448 26.7636 61.4878 26.886 61.5401 27.022L61.7192 27.5135C61.8312 27.8799 61.7819 28.2457 61.6996 28.5357C61.6148 28.8336 61.4731 29.1314 61.3106 29.4097C60.9847 29.9677 60.5156 30.5509 60.0216 31.0731C59.5248 31.598 58.9747 32.0921 58.4672 32.4631C58.2143 32.6479 57.9567 32.8127 57.712 32.9367C57.4862 33.051 57.1897 33.1727 56.8803 33.1857C56.367 33.2067 55.9426 33.035 55.6205 32.7349C55.3389 32.4721 55.17 32.1393 55.0639 31.9227C54.9348 31.6591 54.8753 31.5217 54.7905 31.3986C54.7298 31.311 54.7018 31.3033 54.6977 31.3026C54.4857 31.2376 54.123 31.1656 53.6088 31.0601C53.123 30.9603 52.5427 30.8381 51.9861 30.676C51.4386 30.5165 50.8545 30.3033 50.3829 30.0021C49.9219 29.7076 49.4174 29.2276 49.3445 28.4999C49.3224 28.2742 49.3798 28.0795 49.4259 27.9611C49.4757 27.8334 49.5435 27.715 49.6082 27.6144C49.7378 27.4132 49.9113 27.2023 50.0964 26.9992C50.4713 26.588 50.9729 26.1214 51.488 25.6825C52.0055 25.2417 52.5574 24.812 53.0408 24.4715C53.2818 24.3018 53.5137 24.1477 53.7211 24.0256C53.914 23.912 54.1379 23.7943 54.3461 23.731C54.4777 23.691 54.5269 23.6362 54.5577 23.5845C54.5999 23.5128 54.6454 23.3726 54.644 23.132C54.6406 22.6364 54.4406 21.9487 54.0906 21.2342C53.7454 20.53 53.3017 19.8953 52.9106 19.5025C52.7744 19.3658 52.6627 19.2814 52.5851 19.2306C51.823 19.7222 51.0239 19.874 50.2332 19.7791C49.4051 19.6795 48.623 19.3203 47.9268 18.9068C47.6757 18.7575 47.4274 18.5919 47.183 18.425L46.908 24.579C46.8973 24.8236 47.0055 25.0582 47.1961 25.2072L47.4467 25.4009L47.4483 25.4025C48.1309 25.9317 48.4818 26.7879 48.3647 27.6454L47.4239 34.5122C46.8158 34.7195 46.2225 34.9578 45.6449 35.2251L46.7143 27.4191C46.7504 27.1542 46.6416 26.8864 46.4295 26.7209L46.1772 26.5272C45.5552 26.0446 45.2081 25.2876 45.2429 24.5041L45.5359 17.9823C45.543 17.8143 45.4346 17.6617 45.2722 17.6128C44.3973 17.35 43.8442 16.5581 43.822 15.7134C43.8148 15.4211 43.9627 15.146 44.2094 14.9891Z" fill="#036FE2"/>
<path opacity="0.3" d="M24.0682 11.7061C25.0899 10.525 28.1439 11.3765 28.3537 11.8119L29.7958 14.8408C30.1469 15.5774 30.7146 14.4631 31.1939 14.8408L34.6363 17.5671C37.0146 19.449 37.154 14.8726 38.3065 14.9483L44.4003 15.3584C44.7347 15.3812 45.0897 15.504 45.4598 15.6904C45.4725 16.193 45.8025 16.6606 46.3176 16.8151C46.8448 16.9737 47.198 17.4695 47.1737 18.0195L46.8807 24.5414C46.8578 25.0562 47.0855 25.552 47.4927 25.8679L47.745 26.0615C48.1924 26.4088 48.422 26.9701 48.3456 27.5313L47.3869 34.5251C47.3833 34.5263 47.3792 34.5271 47.3755 34.5283C46.2871 34.9027 45.2455 35.3757 44.2603 35.9378C44.2003 35.9721 44.1408 36.0071 44.0813 36.042C43.928 36.1318 43.7759 36.2231 43.6255 36.3171C43.5506 36.3639 43.4768 36.4124 43.4025 36.4603C42.9122 36.7767 42.4384 37.1156 41.9816 37.4759C41.9237 37.5216 41.8649 37.5663 41.8075 37.6126C41.6678 37.7255 41.5303 37.8408 41.3941 37.9577C41.3401 38.004 41.2864 38.0507 41.2329 38.0977C41.0909 38.2224 40.9495 38.3479 40.8114 38.4769C40.7789 38.5073 40.7477 38.5391 40.7154 38.5697C40.2862 38.9763 39.8766 39.403 39.4882 39.849C39.4194 39.9278 39.3505 40.0066 39.2831 40.0866C39.1945 40.1919 39.1073 40.2983 39.021 40.4056C38.9319 40.5164 38.8439 40.6281 38.7574 40.7409C38.6834 40.8374 38.6097 40.9342 38.5376 41.0322C38.4389 41.1663 38.343 41.3024 38.2479 41.4391C38.1919 41.5198 38.1351 41.6 38.0803 41.6817C37.9409 41.8891 37.806 42.0998 37.675 42.3132C37.6131 42.4141 37.5544 42.517 37.4943 42.6192C37.4167 42.7513 37.3393 42.8837 37.2648 43.0179C37.2063 43.1236 37.1489 43.23 37.0923 43.3369C37.0219 43.47 36.9528 43.6039 36.8856 43.7389C36.8327 43.8453 36.7803 43.952 36.7294 44.0596C36.4999 44.5438 36.29 45.0392 36.1027 45.5456C36.0771 45.6151 36.0544 45.6857 36.0295 45.7555C35.9639 45.9398 35.9005 46.1252 35.8407 46.3122C35.8108 46.4056 35.7828 46.4997 35.7544 46.5938C35.6999 46.7743 35.6489 46.9562 35.5998 47.139C35.5833 47.2005 35.5636 47.2612 35.5477 47.3229L35.4956 47.5313C35.3746 48.0256 35.2731 48.5277 35.1929 49.0368C35.1789 49.1254 35.1682 49.2147 35.1555 49.3037C35.1279 49.4975 35.1037 49.6923 35.0822 49.888C35.071 49.9904 35.0592 50.0928 35.0497 50.1956C35.0306 50.4008 35.0164 50.607 35.0041 50.8141C34.9998 50.8868 34.9945 50.9594 34.9911 51.0322C34.9771 51.3261 34.9683 51.6219 34.9683 51.9193C34.9683 52.215 34.9771 52.5091 34.9911 52.8014C34.9923 52.827 34.993 52.8525 34.9943 52.8779C34.995 52.8909 34.9953 52.904 34.996 52.917C34.4041 53.0228 33.8099 53.1338 33.2333 53.2295C33.2536 52.996 33.2239 52.7575 33.1405 52.5345L30.9139 46.5938C30.6857 45.9834 30.8548 45.2934 31.3387 44.8571L31.7766 44.4649C32.3704 43.929 32.472 43.0327 32.0142 42.3766L27.8866 36.4668C27.4856 35.8932 26.7547 35.6496 26.0897 35.8679L22.5578 37.03C21.9425 37.2316 21.2658 37.0388 20.8488 36.5433L20.6079 36.2585C20.01 35.5466 20.2585 34.4592 21.106 34.0775L21.3387 33.9733C21.9151 33.714 22.1739 33.0353 21.9165 32.458C21.6867 31.9416 21.8682 31.3341 22.343 31.0274L24.4458 29.6716C25.1675 29.2055 25.388 28.2478 24.9423 27.5134L23.4302 25.0248C23.1785 24.6102 23.1295 24.1008 23.2984 23.6462L25.7837 16.9649C25.9672 16.4709 25.8932 15.9172 25.5868 15.4886L23.5799 12.6891C23.6976 12.2904 23.8551 11.9533 24.0682 11.7061Z" fill="#036FE2"/>
<path d="M24.0698 11.7045C25.0918 10.5234 28.1482 11.375 28.3569 11.8103L29.7973 14.8409C30.1485 15.5766 30.7162 14.463 31.1955 14.8409L34.6378 17.5655C37.0162 19.4474 37.1557 14.8712 38.3081 14.9467L44.4018 15.3568C44.7363 15.3796 45.0913 15.5024 45.4614 15.6888C45.474 16.1916 45.8053 16.6592 46.3208 16.8135C46.8474 16.9723 47.1995 17.4683 47.1753 18.0179L46.8823 24.5398C46.8592 25.0546 47.0871 25.5503 47.4943 25.8663L47.7482 26.0599C48.1952 26.4072 48.4235 26.9688 48.3472 27.5297L47.3885 34.5235C46.7798 34.7323 46.1859 34.9722 45.6079 35.2413L46.6886 27.349L46.4803 27.1895L46.4738 27.183C45.6362 26.5335 45.17 25.518 45.2173 24.4649L45.494 18.2784C44.8925 18.0105 44.4229 17.5554 44.1317 17.0072L38.9152 16.6573C38.877 16.738 38.8317 16.8287 38.7834 16.934C38.6815 17.156 38.5506 17.4397 38.4057 17.7136C38.1606 18.1769 37.661 19.0483 36.7326 19.4633C35.5696 19.9822 34.4485 19.5405 33.6043 18.8724L30.7918 16.6459C30.6104 16.7089 30.3419 16.7776 30.0203 16.7631C29.6121 16.7444 29.2158 16.5971 28.8859 16.3285C28.5845 16.0827 28.4022 15.7888 28.2918 15.557L27.0646 12.9756C26.8629 12.9097 26.5942 12.8412 26.3029 12.8031C26.0765 12.7736 25.8689 12.7673 25.6942 12.7754L26.9425 14.5153C27.4936 15.2851 27.6778 16.2513 27.4634 17.1586L27.3478 17.5443L24.8755 24.1898L26.368 26.6459C27.2246 28.057 26.8837 29.8721 25.6177 30.8809L25.3507 31.0713L23.588 32.2074C23.9137 33.4357 23.3707 34.745 22.2501 35.3747L25.5705 34.2826C26.9359 33.8345 28.4328 34.3369 29.2537 35.5114L33.383 41.4213L33.5457 41.6784C34.292 42.9924 34.0364 44.6713 32.8931 45.7019L32.8914 45.7051L32.4943 46.0583L34.4653 51.3187C34.6393 51.2877 34.8123 51.2568 34.9845 51.226C34.976 51.4559 34.9683 51.6872 34.9682 51.9193C34.9683 52.2535 34.9783 52.5856 34.9959 52.9154C34.4045 53.0211 33.8111 53.1323 33.2348 53.2279C33.2551 52.9944 33.2255 52.7559 33.1421 52.5329L30.9155 46.5922C30.6873 45.9818 30.8563 45.2918 31.3403 44.8555L31.7781 44.4633C32.3719 43.9273 32.4736 43.0311 32.0158 42.375L27.8882 36.4668C27.4872 35.8931 26.7563 35.6481 26.0913 35.8663L22.561 37.0284L22.3266 37.0853C21.7793 37.1768 21.2153 36.9753 20.8504 36.5417L20.6095 36.2569C20.0116 35.545 20.2601 34.4576 21.1076 34.0759L21.3403 33.9717C21.9166 33.7123 22.1755 33.0337 21.9181 32.4564C21.6885 31.9401 21.8699 31.3324 22.3445 31.0258L24.4474 29.67C25.124 29.233 25.361 28.3638 25.0203 27.6517L24.9438 27.5118L23.4318 25.0232C23.1801 24.6087 23.1312 24.1008 23.3 23.6462L25.7853 16.9633C25.9458 16.531 25.9094 16.0527 25.6925 15.653L25.5884 15.487L23.5815 12.6875C23.6992 12.2888 23.8566 11.9517 24.0698 11.7045Z" fill="#036FE2"/>
<path fill-rule="evenodd" clip-rule="evenodd" d="M53.3584 33.5286C63.5152 33.5286 71.7501 41.7622 71.7504 51.9189C71.7504 56.0965 70.3569 59.9493 68.0101 63.0371L77.1817 72.207L73.6465 75.7422L64.4766 66.5706C61.3888 68.9173 57.536 70.3109 53.3584 70.3109C43.2017 70.3106 34.9681 62.0757 34.9681 51.9189C34.9684 41.7624 43.2019 33.5289 53.3584 33.5286ZM53.3584 38.5856C45.995 38.5859 40.0254 44.5555 40.0251 51.9189C40.0251 59.2826 45.9949 65.252 53.3584 65.2523C60.7222 65.2523 66.6918 59.2827 66.6918 51.9189C66.6915 44.5554 60.7221 38.5856 53.3584 38.5856Z" fill="#024D9E"/>
<ellipse cx="15.4775" cy="22.9273" rx="3.33333" ry="3.33333" fill="#024D9E"/>
<ellipse cx="12.1442" cy="44.0861" rx="3.33333" ry="3.33333" fill="#024D9E"/>
<ellipse cx="36.2913" cy="32.1662" rx="3.33333" ry="3.33333" fill="#024D9E"/>
</svg>
