<svg width="49" height="48" viewBox="0 0 49 48" fill="none" xmlns="http://www.w3.org/2000/svg">
<g opacity="0.3">
<path d="M24.0107 27.7852L23.9932 31.6299L20.5918 33.5723L17.2695 31.6328L17.2871 27.7461L20.6484 25.8242L24.0107 27.7852Z" fill="#036FE2"/>
<path d="M27.8281 21.0605L27.8115 24.9473L24.4473 26.8682L21.0859 24.9072L21.1045 21.0645L24.5039 19.1201L27.8281 21.0605Z" fill="#036FE2"/>
<path d="M31.7441 14.3691L31.7266 18.2559L28.3506 20.1855L25.002 18.2305L25.0186 14.333L28.3857 12.4102L31.7441 14.3691Z" fill="#036FE2"/>
</g>
<path d="M20.0947 21.0547L20.0771 24.9521L16.7109 26.876L13.3535 24.917L13.3711 21.0303L16.7461 19.1006L20.0947 21.0547Z" fill="#036FE2"/>
<path d="M16.1885 14.3691L16.1709 18.2559L12.7959 20.1855L9.44629 18.2305L9.46289 14.333L12.8301 12.4102L16.1885 14.3691Z" fill="#036FE2"/>
<path d="M24.0107 14.3779L23.9932 18.2227L20.5918 20.165L17.2695 18.2256L17.2871 14.3389L20.6484 12.417L24.0107 14.3779Z" fill="#036FE2"/>
<g opacity="0.8">
<path d="M31.7441 27.7764L31.7266 31.6631L28.3506 33.5928L25.002 31.6377L25.0186 27.7402L28.3857 25.8174L31.7441 27.7764Z" fill="#036FE2"/>
<path d="M39.5654 27.7852L39.5479 31.6299L36.1475 33.5723L32.8242 31.6328L32.8418 27.7461L36.2031 25.8242L39.5654 27.7852Z" fill="#036FE2"/>
<path d="M35.6504 21.0547L35.6318 24.9521L32.2666 26.876L28.9092 24.917L28.9258 21.0303L32.3008 19.1006L35.6504 21.0547Z" fill="#036FE2"/>
</g>
<path opacity="0.5" fill-rule="evenodd" clip-rule="evenodd" d="M42.6387 4.01074C43.6471 4.11316 44.4345 4.96452 44.4346 6V42L44.4238 42.2041C44.3284 43.1455 43.58 43.8936 42.6387 43.9893L42.4346 44H6.43457C5.39892 44 4.54758 43.2128 4.44531 42.2041L4.43457 42V6C4.43464 4.89549 5.33004 4 6.43457 4H42.4346L42.6387 4.01074ZM8.44727 43L8.45508 41.1914L5.43457 39.4287V42C5.43457 42.5523 5.88229 43 6.43457 43H8.44727ZM13.3711 34.4365L13.3535 38.3232L16.7109 40.2832L20.0771 38.3584L20.0947 34.4609L16.7461 32.5078L13.3711 34.4365ZM28.9258 34.4365L28.9092 38.3232L32.2666 40.2832L35.6318 38.3584L35.6504 34.4609L32.3008 32.5078L28.9258 34.4365ZM5.54883 34.4717L5.53125 38.3145L8.89258 40.2754L12.2559 38.3535L12.2734 34.4668L8.94922 32.5273L5.54883 34.4717ZM21.1045 34.4717L21.0859 38.3135L24.4482 40.2754L27.8115 38.3535L27.8281 34.4668L24.5039 32.5273L21.1045 34.4717ZM36.6592 34.4717L36.6416 38.3145L40.0029 40.2754L43.3662 38.3535L43.3838 34.4668L40.0596 32.5273L36.6592 34.4717ZM9.46289 27.7402L9.44629 31.6377L12.7959 33.5928L16.1709 31.6631L16.1885 27.7764L12.8301 25.8174L9.46289 27.7402ZM25.0186 27.7402L25.002 31.6377L28.3506 33.5928L31.7266 31.6631L31.7441 27.7764L28.3857 25.8174L25.0186 27.7402ZM17.2871 27.7461L17.2695 31.6328L20.5918 33.5723L23.9932 31.6299L24.0107 27.7852L20.6484 25.8242L17.2871 27.7461ZM32.8418 27.7461L32.8242 31.6328L36.1475 33.5723L39.5479 31.6299L39.5654 27.7852L36.2031 25.8242L32.8418 27.7461ZM5.43457 33.3438L8.4375 31.6299L8.45508 27.7852L5.43457 26.0225V33.3438ZM13.3711 21.0303L13.3535 24.917L16.7109 26.876L20.0771 24.9521L20.0947 21.0547L16.7461 19.1006L13.3711 21.0303ZM28.9258 21.0303L28.9092 24.917L32.2666 26.876L35.6318 24.9521L35.6504 21.0547L32.3008 19.1006L28.9258 21.0303ZM5.54883 21.0645L5.53125 24.9082L8.8916 26.8682L12.2559 24.9473L12.2734 21.0605L8.94922 19.1201L5.54883 21.0645ZM21.1045 21.0645L21.0859 24.9072L24.4473 26.8682L27.8115 24.9473L27.8281 21.0605L24.5039 19.1201L21.1045 21.0645ZM36.6592 21.0645L36.6416 24.9082L40.0029 26.8682L43.3662 24.9473L43.3838 21.0605L40.0596 19.1201L36.6592 21.0645ZM9.46289 14.333L9.44629 18.2305L12.7959 20.1855L16.1709 18.2559L16.1885 14.3691L12.8301 12.4102L9.46289 14.333ZM25.0186 14.333L25.002 18.2305L28.3506 20.1855L31.7266 18.2559L31.7441 14.3691L28.3857 12.4102L25.0186 14.333ZM17.2871 14.3389L17.2695 18.2256L20.5918 20.165L23.9932 18.2227L24.0107 14.3779L20.6484 12.417L17.2871 14.3389ZM32.8418 14.3389L32.8242 18.2256L36.1475 20.165L39.5479 18.2227L39.5654 14.3779L36.2031 12.417L32.8418 14.3389ZM5.43457 19.9365L8.4375 18.2227L8.45508 14.3779L5.43457 12.6152V19.9365ZM13.3711 7.62305L13.3535 11.5098L16.7109 13.4688L20.0771 11.5449L20.0947 7.64746L16.7461 5.69336L13.3711 7.62305ZM28.9258 7.62305L28.9092 11.5098L32.2666 13.4688L35.6318 11.5449L35.6504 7.64746L32.3008 5.69336L28.9258 7.62305ZM5.54883 7.65723L5.53125 11.501L8.8916 13.4609L12.2559 11.54L12.2734 7.65332L8.94922 5.71289L5.54883 7.65723ZM21.1045 7.65723L21.0859 11.5L24.4473 13.4609L27.8115 11.54L27.8281 7.65332L24.5039 5.71289L21.1045 7.65723ZM36.6592 7.65723L36.6416 11.501L40.0029 13.4609L43.3662 11.54L43.3838 7.65332L40.0596 5.71289L36.6592 7.65723ZM12.7959 6.77832L15.9082 5H9.74805L12.7959 6.77832ZM28.3506 6.77832L31.4629 5H25.3027L28.3506 6.77832ZM20.5918 6.75781L23.6699 5H17.5791L20.5918 6.75781ZM36.1475 6.75781L39.2246 5H33.1338L36.1475 6.75781ZM6.43457 5C5.88233 5 5.43464 5.44777 5.43457 6V6.5293L8.11426 5H6.43457ZM16.1807 43L16.1885 41.1826L12.8301 39.2236L9.46289 41.1465L9.45508 43H16.1807ZM24.0029 43L24.0107 41.1914L20.6475 39.2314L17.2871 41.1523L17.2793 43H24.0029ZM31.7363 43L31.7441 41.1826L28.3857 39.2236L25.0186 41.1465L25.0107 43H31.7363ZM39.5576 43L39.5654 41.1914L36.2031 39.2305L32.8418 41.1523L32.834 43H39.5576ZM42.4346 43C42.9867 42.9998 43.4346 42.5522 43.4346 42V6C43.4345 5.44789 42.9866 5.0002 42.4346 5H40.8584L43.4336 6.50195V12.6992L40.5742 14.333L40.5576 18.2305L43.4336 19.9092V26.1064L40.5742 27.7402L40.5576 31.6377L43.4336 33.3164V39.5127L40.5742 41.1465L40.5664 43H42.4346Z" fill="#036FE2"/>
</svg>
